<?xml version="1.0" encoding="UTF-8" standalone="no"?>
<svg
   xmlns:dc="http://purl.org/dc/elements/1.1/"
   xmlns:cc="http://creativecommons.org/ns#"
   xmlns:rdf="http://www.w3.org/1999/02/22-rdf-syntax-ns#"
   xmlns:svg="http://www.w3.org/2000/svg"
   xmlns="http://www.w3.org/2000/svg"
   version="1.1"
   id="svg4651"
   viewBox="0 0 199.99999 199.99999"
   height="56.444443mm"
   width="56.444443mm">
  <defs
     id="defs4653" />
  <metadata
     id="metadata4656">
    <rdf:RDF>
      <cc:Work
         rdf:about="">
        <dc:format>image/svg+xml</dc:format>
        <dc:type
           rdf:resource="http://purl.org/dc/dcmitype/StillImage" />
        <dc:title></dc:title>
      </cc:Work>
    </rdf:RDF>
  </metadata>
  <g
     transform="translate(-445.71429,-355.21936)"
     id="layer1">
    <path
       d="m 545.71424,375.22009 c -43.99995,0 -79.99994,35.99999 -79.99994,80.00009 0,43.99989 35.99999,79.99989 79.99994,79.99989 44.00004,0 80.00004,-36 80.00004,-79.99989 0,-44.0001 -36,-80.00009 -80.00004,-80.00009 z m 40.00004,119.99998 -30.00004,-19.99989 -10,39.99989 -10,-39.99989 -30,19.99989 20,-29.99989 -39.99994,-10 39.99994,-10.0001 -20,-30 30,20 10,-40 10,40 30.00004,-20 -19.99999,30 39.99999,10.0001 -39.99999,10 19.99999,29.99989 z"
       id="path4252"
       style="display:inline" />
  </g>
</svg>
