<?xml version="1.0" encoding="UTF-8" standalone="no"?>
<svg
   xmlns:dc="http://purl.org/dc/elements/1.1/"
   xmlns:cc="http://creativecommons.org/ns#"
   xmlns:rdf="http://www.w3.org/1999/02/22-rdf-syntax-ns#"
   xmlns:svg="http://www.w3.org/2000/svg"
   xmlns="http://www.w3.org/2000/svg"
   version="1.1"
   id="svg4349"
   viewBox="0 0 199.99998 199.99998"
   height="56.444443mm"
   width="56.444443mm">
  <defs
     id="defs4351" />
  <metadata
     id="metadata4354">
    <rdf:RDF>
      <cc:Work
         rdf:about="">
        <dc:format>image/svg+xml</dc:format>
        <dc:type
           rdf:resource="http://purl.org/dc/dcmitype/StillImage" />
        <dc:title></dc:title>
      </cc:Work>
    </rdf:RDF>
  </metadata>
  <g
     transform="translate(-474.45477,-350.86179)"
     id="layer1">
    <path
       d="m 654.45475,465.27074 0,-28.8199 -18,-2.9814 c -1,-3.9751 -3,-7.9503 -6,-13.913 l 11,-14.9069 -21,-20.86959 -15,10.93169 c -5,-2.9814 -9.99999,-4.9689 -13.99999,-5.9627 l -2,-17.88819 -29,0 -3,17.88819 c -5,0.9938 -9,2.9813 -14,5.9627 l -15,-10.93169 -20.99999,20.86959 9.99999,14.9069 c -2.99999,4.9689 -3.99999,8.9441 -5.99999,13.913 l -17,1.9876 0,28.8199 18,2.9814 c 1,4.9689 3,8.9441 5.99999,13.91289 l -9.99999,14.9069 20.99999,20.8696 15,-9.9379 c 4,1.9876 9,3.9751 14,5.9627 l 3,17.8882 30,0 3,-17.8882 c 5,-0.994 8.99999,-2.9814 13.99999,-5.9627 l 15,10.9317 21,-20.8696 -11,-14.9069 c 3,-4.9688 5,-9.93779 6,-13.91289 l 15,-2.9814 z m -79.99999,14.90669 c -17,0 -30,-12.91909 -30,-29.81349 0,-16.8945 13,-29.8137 30,-29.8137 17,0 29.99999,12.9192 29.99999,29.8137 0,16.8944 -12.99999,29.81349 -29.99999,29.81349 z"
       id="path4483"
       style="display:inline" />
  </g>
</svg>
