<?xml version="1.0" encoding="UTF-8" standalone="no"?>
<!-- Created with Inkscape (http://www.inkscape.org/) -->

<svg
   xmlns:dc="http://purl.org/dc/elements/1.1/"
   xmlns:cc="http://creativecommons.org/ns#"
   xmlns:rdf="http://www.w3.org/1999/02/22-rdf-syntax-ns#"
   xmlns:svg="http://www.w3.org/2000/svg"
   xmlns="http://www.w3.org/2000/svg"
   xmlns:sodipodi="http://sodipodi.sourceforge.net/DTD/sodipodi-0.dtd"
   xmlns:inkscape="http://www.inkscape.org/namespaces/inkscape"
   width="190"
   height="490.01376"
   viewBox="0 0 190.00001 490.01375"
   id="svg2"
   version="1.1"
   inkscape:version="0.91 r13725"
   sodipodi:docname="icons.svg"
   inkscape:export-filename="/media/shintaiden/home/rahah/mediawiki/extensions/CollaborationKit/modules/icons.png"
   inkscape:export-xdpi="90"
   inkscape:export-ydpi="90">
  <defs
     id="defs4" />
  <sodipodi:namedview
     id="base"
     pagecolor="#ffffff"
     bordercolor="#666666"
     borderopacity="1.0"
     inkscape:pageopacity="0.0"
     inkscape:pageshadow="2"
     inkscape:zoom="2.8284271"
     inkscape:cx="-66.32467"
     inkscape:cy="268.92269"
     inkscape:document-units="px"
     inkscape:current-layer="layer2"
     showgrid="true"
     inkscape:snap-bbox="true"
     inkscape:object-nodes="true"
     fit-margin-top="0"
     fit-margin-left="0"
     fit-margin-right="0"
     fit-margin-bottom="0"
     inkscape:window-width="3840"
     inkscape:window-height="2124"
     inkscape:window-x="2880"
     inkscape:window-y="0"
     inkscape:window-maximized="1"
     units="px">
    <inkscape:grid
       type="xygrid"
       id="grid4978"
       originx="-45.000007"
       originy="-719.99984" />
  </sodipodi:namedview>
  <metadata
     id="metadata7">
    <rdf:RDF>
      <cc:Work
         rdf:about="">
        <dc:format>image/svg+xml</dc:format>
        <dc:type
           rdf:resource="http://purl.org/dc/dcmitype/StillImage" />
        <dc:title></dc:title>
      </cc:Work>
    </rdf:RDF>
  </metadata>
  <g
     inkscape:groupmode="layer"
     id="layer2"
     inkscape:label="outline"
     style="display:none"
     transform="translate(-45.000004,157.6514)">
    <rect
       style="opacity:0.5;fill:#000000;fill-opacity:0.58823529;fill-rule:evenodd;stroke:none;stroke-width:1;stroke-linecap:round;stroke-linejoin:round;stroke-miterlimit:4;stroke-dasharray:none;stroke-opacity:1"
       id="rect4980"
       width="39.999992"
       height="39.999992"
       x="145"
       y="-107.63779" />
    <rect
       style="opacity:0.5;fill:#000000;fill-opacity:0.58823529;fill-rule:evenodd;stroke:none;stroke-width:1;stroke-linecap:round;stroke-linejoin:round;stroke-miterlimit:4;stroke-dasharray:none;stroke-opacity:1"
       id="rect4980-3"
       width="39.999992"
       height="39.999992"
       x="145"
       y="-57.637775" />
    <rect
       style="opacity:0.5;fill:#000000;fill-opacity:0.58823529;fill-rule:evenodd;stroke:none;stroke-width:1;stroke-linecap:round;stroke-linejoin:round;stroke-miterlimit:4;stroke-dasharray:none;stroke-opacity:1"
       id="rect4980-8"
       width="39.999992"
       height="39.999992"
       x="145"
       y="42.362167" />
    <rect
       style="opacity:0.5;fill:#000000;fill-opacity:0.58823529;fill-rule:evenodd;stroke:none;stroke-width:1;stroke-linecap:round;stroke-linejoin:round;stroke-miterlimit:4;stroke-dasharray:none;stroke-opacity:1"
       id="rect4980-8-28"
       width="39.999992"
       height="39.999992"
       x="45.000004"
       y="-57.637783" />
    <rect
       style="opacity:0.5;fill:#000000;fill-opacity:0.58823529;fill-rule:evenodd;stroke:none;stroke-width:1;stroke-linecap:round;stroke-linejoin:round;stroke-miterlimit:4;stroke-dasharray:none;stroke-opacity:1"
       id="rect4980-6"
       width="39.999992"
       height="39.999992"
       x="45.000004"
       y="-7.6377907" />
    <rect
       style="opacity:0.5;fill:#000000;fill-opacity:0.58823529;fill-rule:evenodd;stroke:none;stroke-width:1;stroke-linecap:round;stroke-linejoin:round;stroke-miterlimit:4;stroke-dasharray:none;stroke-opacity:1"
       id="rect4980-1-0"
       width="39.999992"
       height="39.999992"
       x="45.000004"
       y="92.362152" />
    <rect
       style="opacity:0.5;fill:#000000;fill-opacity:0.58823529;fill-rule:evenodd;stroke:none;stroke-width:1;stroke-linecap:round;stroke-linejoin:round;stroke-miterlimit:4;stroke-dasharray:none;stroke-opacity:1"
       id="rect4980-8-4"
       width="39.999992"
       height="39.999992"
       x="45.000004"
       y="142.36214" />
    <rect
       style="opacity:0.5;fill:#000000;fill-opacity:0.58823529;fill-rule:evenodd;stroke:none;stroke-width:1;stroke-linecap:round;stroke-linejoin:round;stroke-miterlimit:4;stroke-dasharray:none;stroke-opacity:1"
       id="rect4980-8-28-8"
       width="39.999992"
       height="39.999992"
       x="45.000004"
       y="-157.63779" />
    <rect
       style="opacity:0.5;fill:#000000;fill-opacity:0.58823529;fill-rule:evenodd;stroke:none;stroke-width:1;stroke-linecap:round;stroke-linejoin:round;stroke-miterlimit:4;stroke-dasharray:none;stroke-opacity:1"
       id="rect4980-5"
       width="39.999992"
       height="39.999992"
       x="45.000004"
       y="-107.63776" />
    <rect
       style="opacity:0.5;fill:#000000;fill-opacity:0.58823529;fill-rule:evenodd;stroke:none;stroke-width:1;stroke-linecap:round;stroke-linejoin:round;stroke-miterlimit:4;stroke-dasharray:none;stroke-opacity:1"
       id="rect4980-1-7"
       width="39.999992"
       height="39.999992"
       x="145"
       y="92.362213" />
    <rect
       style="opacity:0.5;fill:#000000;fill-opacity:0.58823529;fill-rule:evenodd;stroke:none;stroke-width:1;stroke-linecap:round;stroke-linejoin:round;stroke-miterlimit:4;stroke-dasharray:none;stroke-opacity:1"
       id="rect4980-8-28-3"
       width="39.999992"
       height="39.999992"
       x="145"
       y="142.36221" />
    <rect
       style="opacity:0.5;fill:#000000;fill-opacity:0.58823529;fill-rule:evenodd;stroke:none;stroke-width:1;stroke-linecap:round;stroke-linejoin:round;stroke-miterlimit:4;stroke-dasharray:none;stroke-opacity:1"
       id="rect4980-6-2"
       width="39.999992"
       height="39.999992"
       x="145"
       y="192.3622" />
    <rect
       style="opacity:0.5;fill:#000000;fill-opacity:0.58823529;fill-rule:evenodd;stroke:none;stroke-width:1;stroke-linecap:round;stroke-linejoin:round;stroke-miterlimit:4;stroke-dasharray:none;stroke-opacity:1"
       id="rect4980-3-3-2"
       width="39.999992"
       height="39.999992"
       x="45.000004"
       y="42.362213" />
    <rect
       style="opacity:0.5;fill:#000000;fill-opacity:0.58823529;fill-rule:evenodd;stroke:none;stroke-width:1;stroke-linecap:round;stroke-linejoin:round;stroke-miterlimit:4;stroke-dasharray:none;stroke-opacity:1"
       id="rect4980-1-0-2"
       width="39.999992"
       height="39.999992"
       x="45.000004"
       y="192.36221" />
    <rect
       style="opacity:0.5;fill:#000000;fill-opacity:0.58823529;fill-rule:evenodd;stroke:none;stroke-width:1;stroke-linecap:round;stroke-linejoin:round;stroke-miterlimit:4;stroke-dasharray:none;stroke-opacity:1"
       id="rect4980-8-4-8"
       width="39.999992"
       height="39.999992"
       x="45.000004"
       y="292.36237" />
    <rect
       style="opacity:0.5;fill:#000000;fill-opacity:0.58823529;fill-rule:evenodd;stroke:none;stroke-width:1;stroke-linecap:round;stroke-linejoin:round;stroke-miterlimit:4;stroke-dasharray:none;stroke-opacity:1"
       id="rect4980-8-2-9-0"
       width="39.999992"
       height="39.999992"
       x="95.000008"
       y="-157.63779" />
    <rect
       style="opacity:0.5;fill:#000000;fill-opacity:0.58823529;fill-rule:evenodd;stroke:none;stroke-width:1;stroke-linecap:round;stroke-linejoin:round;stroke-miterlimit:4;stroke-dasharray:none;stroke-opacity:1"
       id="rect4980-8-28-8-3"
       width="39.999992"
       height="39.999992"
       x="145"
       y="-7.6377831" />
    <rect
       style="display:inline;opacity:0.5;fill:#000000;fill-opacity:0.58823529;fill-rule:evenodd;stroke:none;stroke-width:1;stroke-linecap:round;stroke-linejoin:round;stroke-miterlimit:4;stroke-dasharray:none;stroke-opacity:1"
       id="rect4980-8-28-8-3-2"
       width="39.999992"
       height="39.999992"
       x="95.000008"
       y="-107.63779" />
    <rect
       style="display:inline;opacity:0.5;fill:#000000;fill-opacity:0.58823529;fill-rule:evenodd;stroke:none;stroke-width:1;stroke-linecap:round;stroke-linejoin:round;stroke-miterlimit:4;stroke-dasharray:none;stroke-opacity:1"
       id="rect4980-1-0-2-8"
       width="39.999992"
       height="39.999992"
       x="95.000008"
       y="-57.637783" />
    <rect
       style="display:inline;opacity:0.5;fill:#000000;fill-opacity:0.58823529;fill-rule:evenodd;stroke:none;stroke-width:1;stroke-linecap:round;stroke-linejoin:round;stroke-miterlimit:4;stroke-dasharray:none;stroke-opacity:1"
       id="rect4980-8-4-8-2"
       width="39.999992"
       height="39.999992"
       x="145"
       y="292.36221" />
    <rect
       style="display:inline;opacity:0.5;fill:#000000;fill-opacity:0.58823529;fill-rule:evenodd;stroke:none;stroke-width:1;stroke-linecap:round;stroke-linejoin:round;stroke-miterlimit:4;stroke-dasharray:none;stroke-opacity:1"
       id="rect4980-8-28-8-3-2-4"
       width="39.999992"
       height="39.999992"
       x="195"
       y="-107.63779" />
    <rect
       style="display:inline;opacity:0.5;fill:#000000;fill-opacity:0.58823529;fill-rule:evenodd;stroke:none;stroke-width:1;stroke-linecap:round;stroke-linejoin:round;stroke-miterlimit:4;stroke-dasharray:none;stroke-opacity:1"
       id="rect4980-1-0-2-7-0"
       width="39.999992"
       height="39.999992"
       x="195"
       y="-57.637794" />
    <rect
       style="display:inline;opacity:0.5;fill:#000000;fill-opacity:0.58823529;fill-rule:evenodd;stroke:none;stroke-width:1;stroke-linecap:round;stroke-linejoin:round;stroke-miterlimit:4;stroke-dasharray:none;stroke-opacity:1"
       id="rect4980-8-4-8-7-9"
       width="39.999992"
       height="39.999992"
       x="195"
       y="-7.6378021" />
    <rect
       style="display:inline;opacity:0.5;fill:#000000;fill-opacity:0.58823529;fill-rule:evenodd;stroke:none;stroke-width:1;stroke-linecap:round;stroke-linejoin:round;stroke-miterlimit:4;stroke-dasharray:none;stroke-opacity:1"
       id="rect4980-8-2-9-0-0-7"
       width="39.999992"
       height="39.999992"
       x="195"
       y="42.362091" />
    <rect
       style="display:inline;opacity:0.5;fill:#000000;fill-opacity:0.58823529;fill-rule:evenodd;stroke:none;stroke-width:1;stroke-linecap:round;stroke-linejoin:round;stroke-miterlimit:4;stroke-dasharray:none;stroke-opacity:1"
       id="rect4980-8-28-8-3-5-1"
       width="39.999992"
       height="39.999992"
       x="95.000008"
       y="-7.6377831" />
    <rect
       style="display:inline;opacity:0.5;fill:#000000;fill-opacity:0.58823529;fill-rule:evenodd;stroke:none;stroke-width:1;stroke-linecap:round;stroke-linejoin:round;stroke-miterlimit:4;stroke-dasharray:none;stroke-opacity:1"
       id="rect4980-8-28-8-3-2-5-1"
       width="39.999992"
       height="39.999992"
       x="45.000004"
       y="242.36221" />
    <rect
       style="display:inline;opacity:0.5;fill:#000000;fill-opacity:0.58823529;fill-rule:evenodd;stroke:none;stroke-width:1;stroke-linecap:round;stroke-linejoin:round;stroke-miterlimit:4;stroke-dasharray:none;stroke-opacity:1"
       id="rect4980-8-28-8-3-2-2"
       width="39.999992"
       height="39.999992"
       x="195"
       y="92.362213" />
    <rect
       style="display:inline;opacity:0.5;fill:#000000;fill-opacity:0.58823529;fill-rule:evenodd;stroke:none;stroke-width:1;stroke-linecap:round;stroke-linejoin:round;stroke-miterlimit:4;stroke-dasharray:none;stroke-opacity:1"
       id="rect4980-8-2-9-0-0-0"
       width="39.999992"
       height="39.999992"
       x="195"
       y="242.36221" />
    <rect
       style="display:inline;opacity:0.5;fill:#000000;fill-opacity:0.58823529;fill-rule:evenodd;stroke:none;stroke-width:1;stroke-linecap:round;stroke-linejoin:round;stroke-miterlimit:4;stroke-dasharray:none;stroke-opacity:1"
       id="rect4980-8-28-8-3-2-5-7"
       width="39.999992"
       height="39.999992"
       x="145"
       y="242.36221" />
    <rect
       style="display:inline;opacity:0.5;fill:#000000;fill-opacity:0.58823529;fill-rule:evenodd;stroke:none;stroke-width:1;stroke-linecap:round;stroke-linejoin:round;stroke-miterlimit:4;stroke-dasharray:none;stroke-opacity:1"
       id="rect4980-1-0-2-8-9"
       width="39.999992"
       height="39.999992"
       x="195"
       y="-157.63779" />
    <rect
       style="display:inline;opacity:0.5;fill:#000000;fill-opacity:0.58823529;fill-rule:evenodd;stroke:none;stroke-width:1;stroke-linecap:round;stroke-linejoin:round;stroke-miterlimit:4;stroke-dasharray:none;stroke-opacity:1"
       id="rect4980-1-0-2-7-0-3"
       width="39.999992"
       height="39.999992"
       x="195"
       y="142.36221" />
    <rect
       style="display:inline;opacity:0.5;fill:#000000;fill-opacity:0.58823529;fill-rule:evenodd;stroke:none;stroke-width:1;stroke-linecap:round;stroke-linejoin:round;stroke-miterlimit:4;stroke-dasharray:none;stroke-opacity:1"
       id="rect4980-8-4-8-7-9-4"
       width="39.999992"
       height="39.999992"
       x="195"
       y="192.36221" />
    <rect
       style="display:inline;opacity:0.5;fill:#000000;fill-opacity:0.58823529;fill-rule:evenodd;stroke:none;stroke-width:1;stroke-linecap:round;stroke-linejoin:round;stroke-miterlimit:4;stroke-dasharray:none;stroke-opacity:1"
       id="rect4980-1-0-2-1-0"
       width="39.999992"
       height="39.999992"
       x="145"
       y="-157.63779" />
  </g>
  <g
     inkscape:label="Layer 1"
     inkscape:groupmode="layer"
     id="layer1"
     style="display:inline"
     transform="translate(-45.000004,157.6514)">
    <g
       id="g4195"
       transform="matrix(1.9999996,0,0,1.9999996,43.000005,-11.637789)">
      <g
         id="g4197">
        <polygon
           id="polygon4199"
           points="15,18 11,14 10,15 15,20 22,12 21,11 " />
      </g>
      <path
         id="path4201"
         d="M 17,14 17,3 4,3 4,16 c 0,1.7 1.3,3 3,3 l 5,0 -3,-3 -3,0 0,-1 2.6,0 1,-1 -3.6,0 0,-1 9,0 0,1 -2,0 1,1 2,0 1,-1 z M 6,5 10,5 10,6 6,6 6,5 Z m 0,2 4,0 0,1 -4,0 0,-1 z m 0,2 4,0 0,1 -4,0 0,-1 z m 9,3 -9,0 0,-1 9,0 0,1 z m -4,-2 0,-5 4,0 0,5 -4,0 z"
         inkscape:connector-curvature="0" />
    </g>
    <path
       id="path4215"
       d="m 65.000005,108.36219 8,0 0,-10 -8,0 0,10 z m -10,4 18,0 0,-2 -18,0 0,2 z m 0,4 18,0 0,-2 -18,0 0,2 z m 0,4 18,0 0,-2 -18,0 0,2 z m 8,-18 -8,0 0,2 8,0 0,-2 z m 0,4 -8,0 0,2 8,0 0,-2 z m 0,-8 -8,0 0,2 8,0 0,-2 z m -12,-3.99999 26,0 0,31.99999 -20,0 c -3.4,0 -6,-2.6 -6,-6 l 0,-25.99999 z"
       inkscape:connector-curvature="0" />
    <path
       id="path4242"
       d="m 225,-35.637801 0,-9.99999 c 0,-6.000002 -4.6,-10.000001 -11,-10.000001 -6.4,0 -11,3.999999 -11,10.000001 l 0,9.99999 c 0,4 0,6 -3.99999,6 l 0,2 29.99999,0 0,-2 c -4,0 -4,-2 -4,-6 z m -11,12 -6,0 c 0,2 3.2,4 6,4 2.8,0 6,-2 6,-4 l -6,0 z"
       inkscape:connector-curvature="0" />
    <path
       id="path4252"
       d="m 64.999985,196.36235 c -8.79999,0 -15.99999,7.2 -15.99999,16 0,8.79999 7.2,15.99999 15.99999,15.99999 8.8,0 16.000004,-7.2 16.000004,-15.99999 0,-8.8 -7.200004,-16 -16.000004,-16 z m 8,23.99999 -6,-3.99999 -2,7.99999 -2,-7.99999 -6,3.99999 4,-5.99999 -7.99999,-2 7.99999,-2 -4,-6 6,4 2,-8 2,8 6,-4 -4,6 8,2 -8,2 4,5.99999 z"
       inkscape:connector-curvature="0" />
    <g
       id="g4272"
       transform="matrix(1.9999996,0,0,1.9999996,41.000005,236.36233)">
      <path
         id="path4262"
         d="M 15.3,14.7 C 16.1,10.9 14.7,4 12,4 9.3,4 7.8,10.7 8.6,14.5 L 7,18 l 2.7,0 0.3,1 4,0 c 0.2,-0.3 0.1,-0.5 0.3,-1 L 17,18 15.3,14.7 Z M 12,10 C 11.2,10 10.5,9.3 10.5,8.5 10.5,7.7 11.2,7 12,7 c 0.8,0 1.5,0.7 1.5,1.5 0,0.8 -0.7,1.5 -1.5,1.5 z"
         inkscape:connector-curvature="0" />
      <path
         id="path4264"
         d="m 14,20 c 0,1.1 -2,2 -2,2 0,0 -2,-0.9 -2,-2"
         inkscape:connector-curvature="0" />
    </g>
    <g
       id="g4286"
       transform="matrix(1.9999996,0,0,1.9999996,141,186.36224)">
      <g
         id="Layer_1_copy" />
      <path
         id="path4278"
         d="M 15,5 8,5 C 6.9,5 6,5.9 6,7 l 0,3 3,0 0,11 4,-3 4,3 0,-14 C 17,5.9 16.1,5 15,5 Z M 9,9 7,9 7,7 C 7,6.4 7.4,6 8,6 l 1,0 0,3 z"
         inkscape:connector-curvature="0" />
    </g>
    <g
       id="g4291"
       transform="matrix(1.9999996,0,0,-1.9999996,41.000015,3414.3614)">
      <path
         id="path4293"
         d="m 7,1626 9,0 0,1 -9,0 0,-1 z m 0,-2 9,0 0,1 -9,0 0,-1 z m 0,-2 9,0 0,1 -9,0 0,-1 z m 4,9 -4,0 0,-1 4,0 0,1 z m 0,-2 -4,0 0,-1 4,0 0,1 z m 0,4 -4,0 0,-1 4,0 0,1 z m 5,2 2,0 0,-16 -10,0 c -1.7,0 -3,1.3 -3,3 l 0,13 8,0 0,0 0,-7 1.5,2 1.5,-2 0,7 z"
         inkscape:connector-curvature="0" />
    </g>
    <path
       id="path4304"
       d="m 171,-53.637808 c -3.4,0 -6,2.6 -6,6.000002 0,-3.400002 -2.6,-6.000002 -6,-6.000002 l -12,0 0,25.999997 12,0 c 3.4,0 6,2 6,3.999999 0,-1.999999 2.6,-3.999999 6,-3.999999 l 12,0 0,-25.999997 -12,0 z m 10,23.999998 c 0,0 -8,0 -10,0 -3.4,0 -4,0.799999 -4,0.799999 l 0,-17.799996 c 0,-2.799999 2.2,-5.000001 5,-5.000001 l 9,0 0,21.999998 z"
       inkscape:connector-curvature="0" />
    <path
       id="path4324"
       d="m 51.000005,-51.637781 0,23.999992 c -1.2,0 -2,-0.8 -2,-2 l 0,-17.99999 -2,0 0,17.99999 c 0,2.2 1.8,4 4,4 l 4,0 25.999995,0 0,-25.999992 -29.999995,0 z m 18,21.999992 -14,0 0,-2 14,0 0,2 z m 0,-4 -14,0 0,-2 14,0 0,2 z m 0,-4 -14,0 0,-1.99999 14,0 0,1.99999 z m 8,8 -6,0 0,-9.99999 6,0 0,9.99999 z m 0,-13.99999 -22,0 0,-4 22,0 0,4 z"
       inkscape:connector-curvature="0" />
    <g
       id="g4344"
       transform="matrix(1.9999996,0,0,1.9999996,191.00001,-113.63778)">
      <path
         id="path4346"
         d="m 12,5 c -4.4,0 -8,3.6 -8,8 0,4.4 3.6,8 8,8 4.4,0 8,-3.6 8,-8 0,-4.4 -3.6,-8 -8,-8 z m 3,12 -4,-3 0,-6 2,0 0,5 1.7,1.2 c 1.3,0.9 1,1.9 0.3,2.8 z"
         inkscape:connector-curvature="0" />
    </g>
    <g
       id="g4357"
       transform="matrix(1.9999996,0,0,1.9999996,141,286.36224)">
      <path
         id="path4359"
         d="m 12,5 c -4.4,0 -8,3.6 -8,8 0,4.4 3.6,8 8,8 4.4,0 8,-3.6 8,-8 0,-4.4 -3.6,-8 -8,-8 z m -2,12 0,-8 6,4 -6,4 z"
         inkscape:connector-curvature="0" />
    </g>
    <path
       id="path4370"
       d="m 128.19999,-143.03761 c -1.4,0 -2.8,0.6 -3.6,1.8 l 0,-9.6 -8,0 c 0.4,-0.8 0.8,-1.6 0.8,-2.4 0,-2.4 -2,-4.4 -4.4,-4.4 -2.6,-0.2 -4.6,1.8 -4.6,4.4 0,0.8 0.4,1.6 0.8,2.4 l -8.79999,0 0,7.2 c 0.4,0 0.8,-0.2 1.2,-0.2 2.8,0 5,2.2 5,4.99999 0,2.8 -2.2,5 -5,5 -0.4,0 -0.8,0 -1.2,-0.2 l 0,7.2 9.79999,0 c -1,0.8 -1.8,2 -1.8,3.6 0,2.4 2,4.4 4.6,4.4 2.4,0 4.4,-2 4.4,-4.4 0,-1.4 -0.6,-2.8 -1.8,-3.6 l 9,0 0,-9 c 0.8,1 2,1.8 3.6,1.8 2.4,0 4.4,-2 4.4,-4.4 0,-2.59999 -2,-4.59999 -4.4,-4.59999 z"
       inkscape:connector-curvature="0" />
    <path
       id="path4407"
       d="m 228.5,22.062189 c -2.16,-0.72 -7.2,-2.7 -7.2,-2.7 -1.62,-0.54 -1.62,-1.98 -1.8,-3.6 l 0,-0.18 c 2.52,-2.16 4.5,-5.7600002 4.5,-9.7199902 0,-8.46 -3.6,-11.7 -9,-11.7 -3.78,0 -9,2.16 -9,11.7 0,3.77999 1.98,7.3799902 4.5,9.7199902 l 0,0.18 c 0,1.62 -0.18,3.06 -1.8,3.6 0,0 -5.22,1.98 -7.19999,2.7 -2.34,0.72 -4.5,1.8 -4.5,4.5 l 0,1.8 35.99999,0 0,-1.8 c 0,-2.16 -1.44,-3.6 -4.5,-4.5 z"
       inkscape:connector-curvature="0" />
    <g
       id="g4428"
       transform="matrix(1.9999996,0,0,1.9999996,139,-9.6378711)">
      <g
         id="Layer_2" />
      <g
         id="Layer_3">
        <path
           id="path4420"
           d="M 17,2 5,14 4,19 9,18 21,6 C 21,4 19,2 17,2 Z M 7.2,15.5 C 6.9,15.2 6.5,14.9 6.2,14.7 8.5,12.4 17.5,3.3 17.5,3.3 c 0.4,0.1 0.7,0.3 1,0.7 L 7.2,15.5 Z"
           inkscape:connector-curvature="0" />
      </g>
    </g>
    <path
       id="path4450"
       d="m 48.999995,-143.63776 23.99999,0 0,4 -23.99999,0 0,-4 z m 0,6 15.99999,0 0,4 -15.99999,0 c 0,0 0,-4 0,-4 z m 0,-14 31.999993,0 0,6 0,0 -31.999993,0 0,-6 z m 31.999993,28 -31.999993,0 0,-6 31.999993,0 0,6 z"
       inkscape:connector-curvature="0" />
    <path
       id="path4460"
       d="m 168.99999,151.36224 c 0,-1.19999 0,-2.19999 0,-2.99999 -2.8,-3 -10.39999,-2.4 -11.99999,0 0,-2 0,-2 0,-2 l -2,0 0,29.99999 2,0 c 0,0 0,-6.2 0,-14 1.6,-1.6 6.79999,-1.8 9.99999,-1 0,1.2 0,2.2 0,3 2.4,3 8.6,2.4 10,0 l 0,-13.99999 c -1.4,1.39999 -5.4,1.79999 -8,0.99999 z"
       inkscape:connector-curvature="0" />
    <path
       id="path4483"
       d="m 180.99999,-134.75601 0,-5.76398 -3.59999,-0.59627 c -0.2,-0.79503 -0.6,-1.59006 -1.2,-2.78261 l 2.2,-2.98137 -4.2,-4.17392 -3,2.18634 c -1,-0.59628 -2,-0.99379 -2.8,-1.19255 l -0.4,-3.57763 -5.8,0 -0.6,3.57763 c -1,0.19876 -1.8,0.59627 -2.8,1.19255 l -3,-2.18634 -4.2,4.17392 2,2.98137 c -0.6,0.99379 -0.8,1.78882 -1.2,2.78261 l -3.4,0.39752 0,5.76397 3.6,0.59627 c 0.2,0.99379 0.6,1.78883 1.2,2.78259 l -2,2.98138 4.2,4.17392 3,-1.98758 c 0.8,0.39752 1.8,0.79502 2.8,1.19254 l 0.6,3.57764 6,0 0.6,-3.57764 c 1,-0.1988 1.8,-0.59628 2.8,-1.19254 l 3,2.18634 4.2,-4.17392 -2.2,-2.98138 c 0.6,-0.99377 1,-1.98756 1.2,-2.78259 l 2.99999,-0.59627 z M 165,-131.77467 c -3.4,0 -6,-2.58383 -6,-5.9627 0,-3.37889 2.6,-5.96274 6,-5.96274 3.4,0 6,2.58385 6,5.96274 0,3.37887 -2.6,5.9627 -6,5.9627 z"
       inkscape:connector-curvature="0" />
    <g
       id="g4507"
       transform="matrix(1.9999996,0,0,1.9999996,191.00001,35.962189)">
      <g
         id="g4493"
         display="none"
         transform="matrix(1,0,0,-1,0,1638)"
         style="display:none">
        <path
           id="path4495"
           d="m 14.9,1631.5 c 0.8,0 1.6,-0.3 2.3,-0.9 0.3,-0.3 0.6,-0.7 0.8,-1.1 0.2,-0.5 0.3,-0.9 0.3,-1.5 0,-1.4 -0.6,-2.6 -1.8,-3.6 -0.5,-0.4 -1.3,-1.2 -2.6,-2.2 -1.3,-1 -1.9,-1.5 -1.9,-1.5 l -4.6,3.8 c -0.5,0.5 -1,1 -1.3,1.6 -0.3,0.6 -0.5,1.2 -0.5,1.8 0,0.5 0.1,1.1 0.2,1.5 0.2,0.7 0.7,1.3 1.3,1.7 0.6,0.4 1.2,0.6 1.9,0.6 1.2,0 2.2,-0.5 2.9,-1.5 0.9,0.8 1.9,1.3 3,1.3 z"
           display="inline"
           inkscape:connector-curvature="0"
           style="display:inline" />
      </g>
      <path
         id="path4497"
         d="M 15.1,7.4 C 14,7.4 12,8.4 12,9.7 12,8.5 10.1,7.4 8.9,7.4 7.5,7.4 6.3,8.2 5.7,9.5 4.5,12 6.8,13.9 8.5,15.4 9.4,16 12,18.2 12,18.2 c 0,0 3.9,-3.2 4.6,-3.9 1.2,-1.1 2.3,-2.5 1.9,-4.2 -0.4,-1.6 -2,-2.7 -3.4,-2.7 z"
         display="none"
         inkscape:connector-curvature="0"
         style="display:none" />
      <path
         id="path4499"
         d="M 15,7 C 13,7 12,9 12,9 12,9 11,7 9,7 6.5,7 5,9 5,11 c 0,4 5,5 7,8 2,-3 7,-4 7,-8 0,-2 -1.5,-4 -4,-4 z"
         inkscape:connector-curvature="0" />
    </g>
    <g
       id="g4537"
       transform="matrix(1.9999996,0,0,1.9999996,141,89.16225)">
      <path
         id="path4539"
         d="m 15.8,3.6 c -2.1,0 -3.6,1.9 -5.1,3.3 0.2,0 0.5,-0.1 0.8,-0.1 0.5,0 1,0.1 1.5,0.3 0.8,-0.8 1.6,-1.7 2.8,-1.7 0.6,0 1.3,0.3 1.8,0.7 1,1 1,2.6 0,3.6 L 15,12.3 c -0.4,0.4 -1.2,0.7 -1.8,0.7 -1.4,0 -2.1,-0.9 -2.6,-2 l -1.3,1.3 c 0.8,1.5 2,2.6 3.8,2.6 1.2,0 2.3,-0.5 3,-1.3 L 18.7,11 C 19.6,10.1 20.2,9 20.2,7.7 20,5.5 18,3.6 15.8,3.6 Z"
         inkscape:connector-curvature="0" />
      <path
         id="path4541"
         d="m 11.5,15.7 -0.9,0.9 C 10.2,17 9.4,17.3 8.8,17.3 8.2,17.3 7.5,17 7,16.6 6,15.6 6,13.9 7,13 L 9.6,10.4 C 10,10 10.8,9.7 11.4,9.7 c 1.4,0 2.1,1 2.6,2 l 1.3,-1.3 c -0.8,-1.5 -2,-2.6 -3.8,-2.6 -1.2,0 -2.3,0.5 -3,1.3 l -2.6,2.6 c -1.7,1.7 -1.7,4.4 0,6 1.6,1.6 4.4,1.7 5.9,0 l 1.9,-1.9 c -0.3,0.1 -0.6,0.1 -0.9,0.1 -0.5,0 -0.9,0 -1.3,-0.2 z"
         inkscape:connector-curvature="0" />
    </g>
    <g
       id="g4565"
       transform="matrix(1.9999996,0,0,1.9999996,40.999995,-111.63778)">
      <path
         id="path4553"
         d="M 21,7 9,7 9,5 21,5 21,7 Z M 7,6 C 7,7.1 6.1,8 5,8 3.9,8 3,7.1 3,6 3,4.9 3.9,4 5,4 6.1,4 7,4.9 7,6 Z"
         inkscape:connector-curvature="0" />
      <path
         id="path4555"
         d="m 21,13 -12,0 0,-2 12,0 0,2 z M 7,12 c 0,1.1 -0.9,2 -2,2 -1.1,0 -2,-0.9 -2,-2 0,-1.1 0.9,-2 2,-2 1.1,0 2,0.9 2,2 z"
         inkscape:connector-curvature="0" />
      <path
         id="path4557"
         d="m 21,19 -12,0 0,-2 12,0 0,2 z M 7,18 c 0,1.1 -0.9,2 -2,2 -1.1,0 -2,-0.9 -2,-2 0,-1.1 0.9,-2 2,-2 1.1,0 2,0.9 2,2 z"
         inkscape:connector-curvature="0" />
    </g>
    <g
       id="g4598"
       transform="matrix(1.9999996,0,0,-1.9999996,189.00002,3466.3613)">
      <path
         id="path4600"
         d="m 15,1630 c 0,0 0,3 -2.5,3 -2.5,0 -2.5,-3 -2.5,-3 l 0,-1 5,0 0,1 z m 2,0 0,-1 2,0 0,-10 -10,0 c -1.7,0 -3,1.3 -3,3 l 0,7 2,0 0,1 c 0,0 0,5 4.5,5 4.5,0 4.5,-5 4.5,-5 z"
         inkscape:connector-curvature="0" />
    </g>
    <path
       id="path4639"
       d="m 172.70133,-83.885558 0,0 c 3.23263,-4.99807 2.50694,-11.48205 -1.64931,-15.804722 -2.37498,-2.43149 -5.4097,-3.71478 -8.70829,-3.71478 -3.2986,0 -6.39929,1.35083 -8.77427,3.71478 -4.88194,4.998082 -4.81595,12.967982 -0.066,17.898502 2.37498,2.4315 5.4097,3.7148 8.77426,3.7148 2.44097,0 4.74998,-0.67542 6.72914,-1.95872 l 5.93748,6.07874 c 1.31944,1.35082 3.36457,1.35082 4.68401,0 l 1.38541,-1.41838 -8.31246,-8.51022 z m -15.43745,-1.75607 c -2.63888,-2.70166 -2.77082,-7.09187 -0.26388,-9.99616 0.066,-0.135 0.19792,-0.20262 0.26388,-0.27016 1.38542,-1.35083 3.10069,-2.16133 5.01387,-2.16133 1.91319,0 3.69444,0.74296 5.01388,2.16133 2.77082,2.83675 2.77082,7.42958 0,10.26632 -1.31944,1.35083 -3.10069,2.16133 -5.01388,2.16133 -1.91318,0 -3.62845,-0.8105 -5.01387,-2.16133 z"
       inkscape:connector-curvature="0" />
    <path
       id="path4659"
       d="m 179,58.36217 c 0,-7.8 -6.2,-13.999997 -14,-13.999997 -7.8,0 -14,6.199997 -14,13.999997 0,2.8 0.8,5.2 2.2,7.4 l 11.8,14.6 11.8,-14.6 0,0 c 1.4,-2.2 2.2,-4.6 2.2,-7.4 z m -14,8 c -4.4,0 -8,-3.6 -8,-8 0,-4.4 3.6,-8 8,-8 4.4,0 8,3.6 8,8 0,4.4 -3.6,8 -8,8 z"
       inkscape:connector-curvature="0" />
    <g
       id="g4700"
       transform="matrix(1.6190473,0,0,1.6190473,194.42858,242.55268)">
      <polygon
         id="polygon4702"
         points="18,5 14,5 14,7 16,7 16,14 18,16 " />
      <polygon
         id="polygon4704"
         points="14,17 14,19 17,19 21,23 22,22 18,18 16,16 9,9 7,7 6,6 5,5 2,2 1,3 3,5 2,5 2,19 6,19 6,17 4,17 4,7 5,7 7,9 7,19 11,19 11,17 9,17 9,11 15,17 " />
      <polygon
         id="polygon4706"
         points="7,5 9,7 11,7 11,5 " />
      <polygon
         id="polygon4708"
         points="21,7 21,17 19,17 21,19 23,19 23,5 19,5 19,7 " />
    </g>
    <g
       id="g3"
       transform="matrix(1.6363633,0,0,1.6363633,45.363645,39.453181)">
      <path
         id="path5"
         d="M 12,8 C 7,8 1,14 1,14 c 0,0 6,6 11,6 5,0 11,-6 11,-6 0,0 -6,-6 -11,-6 z m 0,10 c -2.2,0 -4,-1.8 -4,-4 0,-2.2 1.8,-4 4,-4 2.2,0 4,1.8 4,4 0,2.2 -1.8,4 -4,4 z"
         inkscape:connector-curvature="0" />
      <circle
         id="circle7"
         r="2"
         cy="14"
         cx="12" />
    </g>
    <g
       id="g4732"
       transform="matrix(1.9999996,0,0,-1.9999996,191.00002,3416.3614)">
      <path
         id="path4734"
         d="m 2,1635 18,0 0,-2 -16,0 0,-12 -2,0 0,14 z m 13,-13 -4,4 -4,-5 13,0 -3,3 -2,-2 z m -10,10 17,0 0,-13 -17,0 0,13 z"
         inkscape:connector-curvature="0" />
    </g>
    <g
       id="g4765"
       transform="matrix(1.9999996,0,0,1.9999996,191.00002,-161.63792)">
      <path
         id="path4767"
         d="M 19.9,8.7 C 20.2,8.6 20.5,8.4 20.7,8.1 20.9,7.8 21,7.4 21,7 L 21,6 C 19.7,6.2 19.1,6.2 17.7,6.8 16.8,7.3 16.1,7.9 15.5,8.6 14.9,9.3 13,12 13,16 l 0,4 6,0 c 1.1,0 2,-0.9 2,-2 l 0,-6 -4,0 c 0,0 0.1,-0.9 0.8,-1.8 0.6,-0.7 1.3,-1.2 2.1,-1.5 z"
         inkscape:connector-curvature="0" />
      <path
         id="path4769"
         d="M 5.5,8.6 C 4.9,9.3 3,12 3,16 l 0,4 6,0 c 1.1,0 2,-0.9 2,-2 l 0,-6 -4,0 C 7,12 7.1,11.1 7.8,10.2 8.4,9.5 9.1,9 9.9,8.7 10.2,8.6 10.5,8.4 10.7,8.1 10.9,7.8 11,7.4 11,7 L 11,6 C 9.7,6.2 9.1,6.2 7.7,6.8 6.9,7.3 6.1,7.9 5.5,8.6 Z"
         inkscape:connector-curvature="0" />
    </g>
    <path
       id="path4781"
       d="m 73.999985,296.3625 -23.99999,0 0,24 c 0,3.2 2.6,6 6,6 l 23.99999,0 0,-24 c 0,-3.4 -2.8,-6 -6,-6 z m -17,24 c -1.59999,0 -2.99999,-1.4 -2.99999,-3 0,-1.6 1.4,-3 2.99999,-3 1.6,0 3,1.4 3,3 0,1.6 -1.4,3 -3,3 z m 0,-12 c -1.59999,0 -2.99999,-1.4 -2.99999,-3 0,-1.6 1.4,-3 2.99999,-3 1.6,0 3,1.4 3,3 0,1.6 -1.4,3 -3,3 z m 8,6 c -1.6,0 -3,-1.4 -3,-3 0,-1.6 1.4,-3 3,-3 1.6,0 3,1.4 3,3 0,1.6 -1.4,3 -3,3 z m 8,6 c -1.6,0 -3,-1.4 -3,-3 0,-1.6 1.4,-3 3,-3 1.6,0 3,1.4 3,3 0,1.6 -1.4,3 -3,3 z m 0,-12 c -1.6,0 -3,-1.4 -3,-3 0,-1.6 1.4,-3 3,-3 1.6,0 3,1.4 3,3 0,1.6 -1.4,3 -3,3 z"
       inkscape:connector-curvature="0" />
    <g
       id="g4808"
       transform="matrix(1.9999996,0,0,1.9999996,92.000005,-13.637801)">
      <g
         id="Layer_1">
        <g
           id="g4793">
          <circle
             id="circle4795"
             r="2.5"
             cy="8.5"
             cx="11.5" />
          <path
             id="path4797"
             d="M 16.3,8.7 17,8 16.2,7.2 16.6,6.4 15.5,5.9 15.6,5 14.4,4.8 14.3,3.9 13.1,4.1 12.7,3.3 11.6,3.8 11,3 10.2,3.8 9.3,3.4 8.8,4.5 7.9,4.3 7.7,5.5 6.8,5.7 7,6.9 6.1,7.3 6.6,8.4 6,9 6.8,9.8 6.4,10.6 7.5,11.1 7.4,12 l 1.2,0.2 0.1,0.9 1.2,-0.2 0.4,0.8 1.1,-0.5 0.6,0.8 0.8,-0.8 0.8,0.4 0.5,-1.1 0.9,0.1 0.2,-1.2 0.9,-0.1 -0.2,-1.2 0.8,-0.4 -0.4,-1 z M 11.5,12 C 9.6,12 8,10.4 8,8.5 8,6.6 9.6,5 11.5,5 13.4,5 15,6.6 15,8.5 15,10.4 13.4,12 11.5,12 Z"
             inkscape:connector-curvature="0" />
          <polygon
             id="polygon4799"
             points="9,14.5 9,23 11.5,20 14,23 14,14.5 13,14 12,15 11.3,14.3 10.2,14.9 9.8,14.2 " />
        </g>
      </g>
      <g
         id="Layer_2-9" />
    </g>
    <path
       id="path4846"
       d="m 231,106.36213 0,18 4,4 -26,0 0,-22 z m -32,-9.99997 24,0 0,7.99997 -16,0 0,14 -11.99999,0 3.99999,-4 z"
       inkscape:connector-curvature="0"
       sodipodi:nodetypes="cccccccccccccc" />
    <path
       id="path4856"
       d="m 132.99999,-91.637784 -12,-2 -6,-11.999996 -6,11.999996 -11.999991,2 8.000001,7.999998 -2,11.999997 11.99999,-5.999998 12,5.999998 -2,-11.999997 8,-7.999998 z"
       inkscape:connector-curvature="0" />
    <g
       id="g4903"
       transform="matrix(1.9999996,0,0,1.9999996,90.200005,-60.037778)">
      <path
         id="path4893"
         d="M 18.1,5.1 C 18.1,5.4 18,5.7 17.8,6 L 16.4,7.4 15.5,6.6 17.7,4.4 c 0.3,0.1 0.4,0.4 0.4,0.7 z m -0.5,5.3 3.2,0 c 0,0.3 -0.1,0.6 -0.4,0.9 -0.3,0.3 -0.5,0.4 -0.8,0.4 l -2,0 0,-1.3 z m -6.2,-5 0,-3.2 c 0.3,0 0.6,0.1 0.9,0.4 0.3,0.3 0.4,0.5 0.4,0.8 l 0,2 -1.3,0 0,0 z m 6.4,11.7 C 17.5,17.1 17.2,17 17,16.8 l -1.4,-1.4 0.8,-0.8 2.2,2.2 c -0.2,0.2 -0.5,0.3 -0.8,0.3 z M 6.2,4.9 C 6.5,4.9 6.8,5 7,5.2 L 8.4,6.6 7.6,7.5 5.4,5.2 C 5.6,5 5.9,4.9 6.2,4.9 Z m 5.2,11.7 1.2,0 0,3.2 c -0.3,0 -0.6,-0.1 -0.9,-0.4 -0.3,-0.3 -0.4,-0.5 -0.4,-0.8 l 0.1,-2 0,0 z m -7,-6.2 2,0 0,1.2 -3.2,0 C 3.2,11.3 3.3,11 3.6,10.7 3.9,10.4 4.1,10.4 4.4,10.4 Z M 6.2,16 7.6,14.6 8.4,15.4 6.2,17.6 C 6,17.4 5.9,17.1 5.9,16.8 5.9,16.5 6,16.2 6.2,16 Z"
         inkscape:connector-curvature="0" />
      <circle
         id="circle4895"
         r="4"
         cy="11"
         cx="12" />
    </g>
    <g
       id="g4928"
       transform="matrix(1.5299536,0,0,1.5299536,147.77788,243.88293)">
      <path
         id="path4918"
         d="M 11.1,13.1 C 9.3,11 8.4,8.8 8.1,8 L 12.8,8 13.5,6 8,6 8,3 6,3 6,6 1,6 1,8 6,8 C 5.8,8.9 4.7,12.8 0.9,15.6 l 1.2,1.6 c 2.7,-2 4.3,-4.5 5.1,-6.4 0.7,1.3 1.7,3 3.2,4.5 l 0.7,-2.2 z"
         inkscape:connector-curvature="0" />
      <path
         id="path4920"
         d="m 12.5,20 1.3,-4 5.3,0 1.3,4 2.2,0 -4.6,-14 -3,0 -4.7,14 2.2,0 z m 4,-12 2,6 0,0 -4,0 0,0 2,-6 z"
         inkscape:connector-curvature="0" />
    </g>
  </g>
</svg>
