<?xml version="1.0" encoding="UTF-8" standalone="no"?>
<svg
   xmlns:dc="http://purl.org/dc/elements/1.1/"
   xmlns:cc="http://creativecommons.org/ns#"
   xmlns:rdf="http://www.w3.org/1999/02/22-rdf-syntax-ns#"
   xmlns:svg="http://www.w3.org/2000/svg"
   xmlns="http://www.w3.org/2000/svg"
   version="1.1"
   id="svg4651"
   viewBox="0 0 199.99999 199.99999"
   height="56.444443mm"
   width="56.444443mm">
  <defs
     id="defs4653" />
  <metadata
     id="metadata4656">
    <rdf:RDF>
      <cc:Work
         rdf:about="">
        <dc:format>image/svg+xml</dc:format>
        <dc:type
           rdf:resource="http://purl.org/dc/dcmitype/StillImage" />
        <dc:title></dc:title>
      </cc:Work>
    </rdf:RDF>
  </metadata>
  <g
     transform="translate(-445.71429,-355.21936)"
     id="layer1">
    <g
       transform="matrix(9.9999982,0,0,9.9999976,425.71429,325.21933)"
       id="g4827"
       style="display:inline">
      <path
         d="m 5,6 0,11 -3,3 17,0 c 1.7,0 3,-1.3 3,-3 L 22,6 5,6 Z m 11.2,2.5 c 0.7,0 1.2,0.6 1.2,1.2 0,0.6 -0.5,1.3 -1.2,1.3 C 15.5,11 15,10.4 15,9.8 15,9.2 15.6,8.5 16.2,8.5 Z m -5.4,0 c 0.7,0 1.2,0.6 1.2,1.2 0,0.6 -0.6,1.3 -1.2,1.3 -0.6,0 -1.2,-0.6 -1.2,-1.2 0,-0.6 0.5,-1.3 1.2,-1.3 z m 2.7,8.5 c -5.1,0 -6,-5 -6,-5 0,0 2,1 6,1 4,0 6,-1 6,-1 0,0 -1,5 -6,5 z"
         id="path4819" />
    </g>
  </g>
</svg>
