<?xml version="1.0" encoding="UTF-8" standalone="no"?>
<svg
   xmlns:dc="http://purl.org/dc/elements/1.1/"
   xmlns:cc="http://creativecommons.org/ns#"
   xmlns:rdf="http://www.w3.org/1999/02/22-rdf-syntax-ns#"
   xmlns:svg="http://www.w3.org/2000/svg"
   xmlns="http://www.w3.org/2000/svg"
   version="1.1"
   id="svg4651"
   viewBox="0 0 199.99999 199.99999"
   height="56.444443mm"
   width="56.444443mm">
  <defs
     id="defs4653" />
  <metadata
     id="metadata4656">
    <rdf:RDF>
      <cc:Work
         rdf:about="">
        <dc:format>image/svg+xml</dc:format>
        <dc:type
           rdf:resource="http://purl.org/dc/dcmitype/StillImage" />
        <dc:title></dc:title>
      </cc:Work>
    </rdf:RDF>
  </metadata>
  <g
     transform="translate(-445.71429,-355.21936)"
     id="layer1">
    <g
       transform="matrix(8.0952365,0,0,8.095236,442.85712,356.1717)"
       id="g4700"
       style="display:inline">
      <polygon
         points="18,5 14,5 14,7 16,7 16,14 18,16 "
         id="polygon4702" />
      <polygon
         points="16,16 9,9 7,7 6,6 5,5 2,2 1,3 3,5 2,5 2,19 6,19 6,17 4,17 4,7 5,7 7,9 7,19 11,19 11,17 9,17 9,11 15,17 14,17 14,19 17,19 21,23 22,22 18,18 "
         id="polygon4704" />
      <polygon
         points="11,7 11,5 7,5 9,7 "
         id="polygon4706" />
      <polygon
         points="19,5 19,7 21,7 21,17 19,17 21,19 23,19 23,5 "
         id="polygon4708" />
    </g>
  </g>
</svg>
