<?xml version="1.0" encoding="UTF-8" standalone="no"?>
<svg
   xmlns:dc="http://purl.org/dc/elements/1.1/"
   xmlns:cc="http://creativecommons.org/ns#"
   xmlns:rdf="http://www.w3.org/1999/02/22-rdf-syntax-ns#"
   xmlns:svg="http://www.w3.org/2000/svg"
   xmlns="http://www.w3.org/2000/svg"
   version="1.1"
   id="svg4651"
   viewBox="0 0 199.99999 199.99999"
   height="56.444443mm"
   width="56.444443mm">
  <defs
     id="defs4653" />
  <metadata
     id="metadata4656">
    <rdf:RDF>
      <cc:Work
         rdf:about="">
        <dc:format>image/svg+xml</dc:format>
        <dc:type
           rdf:resource="http://purl.org/dc/dcmitype/StillImage" />
        <dc:title></dc:title>
      </cc:Work>
    </rdf:RDF>
  </metadata>
  <g
     transform="translate(-445.71429,-355.21936)"
     id="layer1">
    <g
       transform="matrix(9.9999982,0,0,9.9999976,435.71426,335.21939)"
       id="g4195"
       style="display:inline">
      <g
         id="g4197">
        <polygon
           points="15,18 11,14 10,15 15,20 22,12 21,11 "
           id="polygon4199" />
      </g>
      <path
         d="M 17,14 17,3 4,3 4,16 c 0,1.7 1.3,3 3,3 l 5,0 -3,-3 -3,0 0,-1 2.6,0 1,-1 -3.6,0 0,-1 9,0 0,1 -2,0 1,1 2,0 1,-1 z M 6,5 10,5 10,6 6,6 6,5 Z m 0,2 4,0 0,1 -4,0 0,-1 z m 0,2 4,0 0,1 -4,0 0,-1 z m 9,3 -9,0 0,-1 9,0 0,1 z m -4,-2 0,-5 4,0 0,5 -4,0 z"
         id="path4201" />
    </g>
  </g>
</svg>
