<?xml version="1.0" encoding="UTF-8" standalone="no"?>
<svg
   xmlns:dc="http://purl.org/dc/elements/1.1/"
   xmlns:cc="http://creativecommons.org/ns#"
   xmlns:rdf="http://www.w3.org/1999/02/22-rdf-syntax-ns#"
   xmlns:svg="http://www.w3.org/2000/svg"
   xmlns="http://www.w3.org/2000/svg"
   version="1.1"
   id="svg4349"
   viewBox="0 0 199.99998 199.99998"
   height="56.444443mm"
   width="56.444443mm">
  <defs
     id="defs4351" />
  <metadata
     id="metadata4354">
    <rdf:RDF>
      <cc:Work
         rdf:about="">
        <dc:format>image/svg+xml</dc:format>
        <dc:type
           rdf:resource="http://purl.org/dc/dcmitype/StillImage" />
        <dc:title></dc:title>
      </cc:Work>
    </rdf:RDF>
  </metadata>
  <g
     transform="translate(-474.45477,-350.86179)"
     id="layer1">
    <path
       d="m 640.45474,423.86268 c -7,0 -14,3 -18,9 l 0,-47.99999 -40.00004,0 c 2,-4 4,-8 4,-12 0,-12 -10,-22 -22,-22 -13,-1 -23,9 -23,22 0,4 2,8 4,12 l -43.99994,0 0,35.99999 c 2,0 4,-1 6,-1 13.99999,0 24.99999,11 24.99999,25 0,14 -11,25 -24.99999,25 -2,0 -4,0 -6,-1 l 0,35.99999 48.99994,0 c -5,4 -9,10 -9,18 0,12 10,22 23,22 12,0 22,-10 22,-22 0,-7 -3,-14 -9,-18 l 45.00004,0 0,-44.99999 c 4,5 10,9 18,9 12,0 22,-10 22,-22 0,-13 -10,-23 -22,-23 z"
       id="path4370"
       style="display:inline" />
  </g>
</svg>
