<?xml version="1.0" encoding="UTF-8" standalone="no"?>
<svg
   xmlns:dc="http://purl.org/dc/elements/1.1/"
   xmlns:cc="http://creativecommons.org/ns#"
   xmlns:rdf="http://www.w3.org/1999/02/22-rdf-syntax-ns#"
   xmlns:svg="http://www.w3.org/2000/svg"
   xmlns="http://www.w3.org/2000/svg"
   version="1.1"
   id="svg4651"
   viewBox="0 0 199.99999 199.99999"
   height="56.444443mm"
   width="56.444443mm">
  <defs
     id="defs4653" />
  <metadata
     id="metadata4656">
    <rdf:RDF>
      <cc:Work
         rdf:about="">
        <dc:format>image/svg+xml</dc:format>
        <dc:type
           rdf:resource="http://purl.org/dc/dcmitype/StillImage" />
        <dc:title></dc:title>
      </cc:Work>
    </rdf:RDF>
  </metadata>
  <g
     transform="translate(-445.71429,-355.21936)"
     id="layer1">
    <g
       transform="matrix(9.9999982,0,0,9.9999976,425.71419,335.21899)"
       id="g4765"
       style="display:inline">
      <path
         d="M 19.9,8.7 C 20.2,8.6 20.5,8.4 20.7,8.1 20.9,7.8 21,7.4 21,7 L 21,6 C 19.7,6.2 19.1,6.2 17.7,6.8 16.8,7.3 16.1,7.9 15.5,8.6 14.9,9.3 13,12 13,16 l 0,4 6,0 c 1.1,0 2,-0.9 2,-2 l 0,-6 -4,0 c 0,0 0.1,-0.9 0.8,-1.8 0.6,-0.7 1.3,-1.2 2.1,-1.5 z"
         id="path4767" />
      <path
         d="M 5.5,8.6 C 4.9,9.3 3,12 3,16 l 0,4 6,0 c 1.1,0 2,-0.9 2,-2 l 0,-6 -4,0 C 7,12 7.1,11.1 7.8,10.2 8.4,9.5 9.1,9 9.9,8.7 10.2,8.6 10.5,8.4 10.7,8.1 10.9,7.8 11,7.4 11,7 L 11,6 C 9.7,6.2 9.1,6.2 7.7,6.8 6.9,7.3 6.1,7.9 5.5,8.6 Z"
         id="path4769" />
    </g>
  </g>
</svg>
