<?xml version="1.0" encoding="UTF-8" standalone="no"?>
<svg
   xmlns:dc="http://purl.org/dc/elements/1.1/"
   xmlns:cc="http://creativecommons.org/ns#"
   xmlns:rdf="http://www.w3.org/1999/02/22-rdf-syntax-ns#"
   xmlns:svg="http://www.w3.org/2000/svg"
   xmlns="http://www.w3.org/2000/svg"
   version="1.1"
   id="svg4651"
   viewBox="0 0 199.99999 199.99999"
   height="56.444443mm"
   width="56.444443mm">
  <defs
     id="defs4653" />
  <metadata
     id="metadata4656">
    <rdf:RDF>
      <cc:Work
         rdf:about="">
        <dc:format>image/svg+xml</dc:format>
        <dc:type
           rdf:resource="http://purl.org/dc/dcmitype/StillImage" />
        <dc:title></dc:title>
      </cc:Work>
    </rdf:RDF>
  </metadata>
  <g
     transform="translate(-445.71429,-355.21936)"
     id="layer1">
    <g
       transform="matrix(9.9999982,0,0,9.9999976,425.71424,325.21983)"
       id="g4272"
       style="display:inline">
      <path
         d="M 15.3,14.7 C 16.1,10.9 14.7,4 12,4 9.3,4 7.8,10.7 8.6,14.5 L 7,18 l 2.7,0 0.3,1 4,0 c 0.2,-0.3 0.1,-0.5 0.3,-1 L 17,18 15.3,14.7 Z M 12,10 C 11.2,10 10.5,9.3 10.5,8.5 10.5,7.7 11.2,7 12,7 c 0.8,0 1.5,0.7 1.5,1.5 0,0.8 -0.7,1.5 -1.5,1.5 z"
         id="path4262" />
      <path
         d="m 14,20 c 0,1.1 -2,2 -2,2 0,0 -2,-0.9 -2,-2"
         id="path4264" />
    </g>
  </g>
</svg>
