<?xml version="1.0" encoding="UTF-8" standalone="no"?>
<svg
   xmlns:dc="http://purl.org/dc/elements/1.1/"
   xmlns:cc="http://creativecommons.org/ns#"
   xmlns:rdf="http://www.w3.org/1999/02/22-rdf-syntax-ns#"
   xmlns:svg="http://www.w3.org/2000/svg"
   xmlns="http://www.w3.org/2000/svg"
   version="1.1"
   id="svg4651"
   viewBox="0 0 199.99999 199.99999"
   height="56.444443mm"
   width="56.444443mm">
  <defs
     id="defs4653" />
  <metadata
     id="metadata4656">
    <rdf:RDF>
      <cc:Work
         rdf:about="">
        <dc:format>image/svg+xml</dc:format>
        <dc:type
           rdf:resource="http://purl.org/dc/dcmitype/StillImage" />
        <dc:title></dc:title>
      </cc:Work>
    </rdf:RDF>
  </metadata>
  <g
     transform="translate(-445.71429,-355.21936)"
     id="layer1">
    <path
       id="path4516-3"
       d="m 455.71428,385.20958 -1.1133,139.99998 181.11328,0 0,-99.99999 -20,0 0,40 -35.8984,0 35.7812,39.99999 -143.10558,0 35.78139,-49.99999 17.8906,-10 35.7813,39.99999 17.87109,-19.99999 -4.1016,0 0,-40 -39.99999,0 0,-39.99999 -79.99999,0 z"
       style="display:inline" />
    <polygon
       points="20,1 18,1 18,5 14,5 14,7 18,7 18,11 20,11 20,7 24,7 24,5 20,5 "
       id="polygon4159-9-0"
       style="display:inline"
       transform="matrix(9.9999982,0,0,9.9999976,405.71418,345.21842)" />
  </g>
</svg>
