<?xml version="1.0" encoding="UTF-8" standalone="no"?>
<svg
   xmlns:dc="http://purl.org/dc/elements/1.1/"
   xmlns:cc="http://creativecommons.org/ns#"
   xmlns:rdf="http://www.w3.org/1999/02/22-rdf-syntax-ns#"
   xmlns:svg="http://www.w3.org/2000/svg"
   xmlns="http://www.w3.org/2000/svg"
   version="1.1"
   id="svg4651"
   viewBox="0 0 199.99999 199.99999"
   height="56.444443mm"
   width="56.444443mm">
  <defs
     id="defs4653" />
  <metadata
     id="metadata4656">
    <rdf:RDF>
      <cc:Work
         rdf:about="">
        <dc:format>image/svg+xml</dc:format>
        <dc:type
           rdf:resource="http://purl.org/dc/dcmitype/StillImage" />
        <dc:title></dc:title>
      </cc:Work>
    </rdf:RDF>
  </metadata>
  <g
     transform="translate(-445.71429,-355.21936)"
     id="layer1">
    <polygon
       points="14,7 18,7 18,11 20,11 20,7 24,7 24,5 20,5 20,1 18,1 18,5 14,5 "
       id="polygon4159-9"
       style="display:inline"
       transform="matrix(9.9999982,0,0,9.9999976,405.71418,345.21906)" />
    <path
       id="path4659-9"
       d="m 545.71427,365.21019 c -39,0 -69.99999,31 -69.99999,69.99999 0,14 3.9961,26.0117 10.9961,37.0117 l 59.00389,72.98829 59.00389,-72.98829 c 1.4507,-2.2796 2.6831,-4.6373 3.8672,-7.0117 l -32.8711,0 0,-3.8672 c -7.34739,8.4218 -18.01399,13.8672 -30.00009,13.8672 -22,0 -40,-18 -40,-40 0,-18.5258 12.832,-34.06139 30,-38.55469 l 0,-11.4453 40.00009,0 0,-13.2813 c -9.07829,-4.2588 -19.20989,-6.7187 -30.00009,-6.7187 z"
       style="display:inline" />
  </g>
</svg>
