<?xml version="1.0" encoding="UTF-8" standalone="no"?>
<svg
   xmlns:dc="http://purl.org/dc/elements/1.1/"
   xmlns:cc="http://creativecommons.org/ns#"
   xmlns:rdf="http://www.w3.org/1999/02/22-rdf-syntax-ns#"
   xmlns:svg="http://www.w3.org/2000/svg"
   xmlns="http://www.w3.org/2000/svg"
   version="1.1"
   id="svg4651"
   viewBox="0 0 199.99999 199.99999"
   height="56.444443mm"
   width="56.444443mm">
  <defs
     id="defs4653" />
  <metadata
     id="metadata4656">
    <rdf:RDF>
      <cc:Work
         rdf:about="">
        <dc:format>image/svg+xml</dc:format>
        <dc:type
           rdf:resource="http://purl.org/dc/dcmitype/StillImage" />
        <dc:title></dc:title>
      </cc:Work>
    </rdf:RDF>
  </metadata>
  <g
     transform="translate(-445.71429,-355.21936)"
     id="layer1">
    <polygon
       points="24,7 24,5 20,5 20,1 18,1 18,5 14,5 14,7 18,7 18,11 20,11 20,7 "
       id="polygon4159-9-6"
       style="display:inline"
       transform="matrix(9.9999982,0,0,9.9999976,405.71417,345.21933)" />
    <path
       id="path4767-7"
       d="m 535.71426,395.21043 c -13,2 -19.0079,2.0078 -33.0079,8.0078 -8,4.99999 -15.99209,11.00779 -21.99209,18.00779 -6,7 -25,33.9844 -25,73.98439 l 0,40 59.99999,0 c 11,0 20,-9 20,-20 l 0,-59.99999 -40,0 c 0,0 1.0078,-8.9883 8.0078,-17.9883 6,-7 12.9961,-12 20.9961,-15 3,-1 5.9883,-2.9961 7.9883,-5.9961 2,-3 3.0078,-7.0156 3.0078,-11.01559 l 0,-10 z m 79.99999,29.99999 0,1.6015 c 0.855,-0.544 1.695,-1.1138 2.5781,-1.6015 l -2.5781,0 z m -40,2.9101 c -7.93069,11.6796 -19.99999,34.8479 -19.99999,67.08989 l 0,40 59.99999,0 c 11,0 20,-9 20,-20 l 0,-59.99999 -20,0 0,10 -40,0 0,-37.0899 z"
       style="display:inline" />
  </g>
</svg>
