<?xml version="1.0" encoding="UTF-8" standalone="no"?>
<svg
   xmlns:dc="http://purl.org/dc/elements/1.1/"
   xmlns:cc="http://creativecommons.org/ns#"
   xmlns:rdf="http://www.w3.org/1999/02/22-rdf-syntax-ns#"
   xmlns:svg="http://www.w3.org/2000/svg"
   xmlns="http://www.w3.org/2000/svg"
   version="1.1"
   id="svg4651"
   viewBox="0 0 199.99999 199.99999"
   height="56.444443mm"
   width="56.444443mm">
  <defs
     id="defs4653" />
  <metadata
     id="metadata4656">
    <rdf:RDF>
      <cc:Work
         rdf:about="">
        <dc:format>image/svg+xml</dc:format>
        <dc:type
           rdf:resource="http://purl.org/dc/dcmitype/StillImage" />
        <dc:title></dc:title>
      </cc:Work>
    </rdf:RDF>
  </metadata>
  <g
     transform="translate(-445.71429,-355.21936)"
     id="layer1">
    <path
       d="m 585.3199,495.29817 c -6.8301,-2.2768 -22.76699,-8.5376 -22.76699,-8.5376 -5.12258,-1.7076 -5.12258,-6.26099 -5.69175,-11.38349 l 0,-0.5692 c 7.96845,-6.83014 14.22937,-18.21364 14.22937,-30.73554 0,-26.7512 -11.3835,-36.9963 -28.45878,-36.9963 -11.95268,0 -28.45876,6.83 -28.45876,36.9963 0,11.9528 6.26092,23.3363 14.22938,30.73554 l 0,0.5692 c 0,5.1225 -0.56918,9.67589 -5.69175,11.38349 0,0 -16.50608,6.2608 -22.76697,8.5376 -7.39928,2.2767 -14.22938,5.6918 -14.22938,14.2294 l 0,5.6917 113.835,0 0,-5.6917 c 0,-6.8301 -4.5534,-11.3835 -14.22937,-14.2294 z"
       id="path4407-6"
       style="display:inline" />
    <path
       id="path4407-6-7"
       d="m 489.95445,420.66297 c -8.24037,0 -19.62109,4.7087 -19.62109,25.50579 0,8.2404 4.31705,16.08831 9.81055,21.18951 l 0,0.3925 c 0,3.5316 -0.39227,6.6724 -3.92383,7.8497 0,0 -11.37897,4.3151 -15.69531,5.88469 -5.10111,1.5696 -9.81054,3.9246 -9.81054,9.8106 l 0,3.9238 30.17772,0 c 0.85321,-1.0555 1.77282,-2.0078 2.74024,-2.8184 4.27372,-3.5807 8.85496,-5.2481 12.97265,-6.5293 4.44104,-1.616 12.39967,-4.6238 17.14454,-6.41989 -4.80246,-1.7934 -10.06055,-3.8515 -10.06055,-3.8515 -3.53157,-1.1773 -3.5334,-4.3181 -3.92578,-7.8497 l 0,-0.3925 c 2.64906,-2.2707 5.01782,-5.2757 6.76758,-8.7422 -1.49644,-4.56391 -2.35743,-9.43201 -2.35743,-14.54301 0,-5.63589 0.55232,-10.75659 1.56641,-15.37889 -3.41936,-5.6333 -8.93528,-8.0312 -15.78516,-8.0312 z m 109.99999,0 c -7.11829,0 -16.57281,3.5241 -19.01757,17.8867 0.10298,1.79169 0.15429,3.63239 0.15429,5.52339 0,2.1011 -0.14746,4.1588 -0.40234,6.1777 1.12809,6.70101 4.87894,12.86011 9.45508,17.10941 l 0,0.3906 c 0,3.5315 -0.39227,6.6725 -3.92383,7.8497 0,0 -7.4272,2.8079 -12.55859,4.7148 4.88968,1.88759 11.04046,4.23609 14.82031,5.49609 5.67339,1.7026 10.67061,4.0554 14.65234,8.0371 0.43486,0.4349 0.84532,0.895 1.24024,1.3711 l 34.82031,0 0,-3.9238 c 0,-4.7088 -3.1398,-7.8487 -9.81055,-9.8106 -4.7088,-1.56959 -15.69531,-5.88469 -15.69531,-5.88469 -3.53157,-1.1772 -3.5334,-4.3182 -3.92578,-7.8497 l 0,-0.3906 c 5.49358,-4.7088 9.81055,-12.55851 9.81055,-21.19141 0,-18.44269 -7.84721,-25.50579 -19.61915,-25.50579 z m -70.75975,74.02139 c -0.31009,0.1886 -0.6252,0.3666 -0.94531,0.5352 l 0.94531,0 0,-0.5352 z"
       style="display:inline" />
  </g>
</svg>
