<?xml version="1.0" encoding="UTF-8" standalone="no"?>
<svg
   xmlns:dc="http://purl.org/dc/elements/1.1/"
   xmlns:cc="http://creativecommons.org/ns#"
   xmlns:rdf="http://www.w3.org/1999/02/22-rdf-syntax-ns#"
   xmlns:svg="http://www.w3.org/2000/svg"
   xmlns="http://www.w3.org/2000/svg"
   version="1.1"
   id="svg4651"
   viewBox="0 0 199.99999 199.99999"
   height="56.444443mm"
   width="56.444443mm">
  <defs
     id="defs4653" />
  <metadata
     id="metadata4656">
    <rdf:RDF>
      <cc:Work
         rdf:about="">
        <dc:format>image/svg+xml</dc:format>
        <dc:type
           rdf:resource="http://purl.org/dc/dcmitype/StillImage" />
        <dc:title></dc:title>
      </cc:Work>
    </rdf:RDF>
  </metadata>
  <g
     transform="translate(-445.71429,-355.21936)"
     id="layer1">
    <path
       d="m 590.71426,375.2201 -119.99998,0 0,119.99998 c 0,16 13,30 29.99999,30 l 119.99999,0 0,-119.99999 c 0,-17 -14,-29.99999 -30,-29.99999 z m -85.00004,119.99998 c -7.99995,0 -14.99995,-7 -14.99995,-14.99999 0,-8 7,-15 14.99995,-15 8,0 15,7 15,15 0,7.99999 -7,14.99999 -15,14.99999 z m 0,-59.99999 c -7.99995,0 -14.99995,-7 -14.99995,-15 0,-8 7,-15 14.99995,-15 8,0 15,7 15,15 0,8 -7,15 -15,15 z m 40,30 c -8,0 -15,-7 -15,-15 0,-8 7,-15 15,-15 8,0 15,7 15,15 0,8 -7,15 -15,15 z m 40.00004,29.99999 c -8,0 -14.99999,-7 -14.99999,-14.99999 0,-8 6.99999,-15 14.99999,-15 8,0 15,7 15,15 0,7.99999 -7,14.99999 -15,14.99999 z m 0,-59.99999 c -8,0 -14.99999,-7 -14.99999,-15 0,-8 6.99999,-15 14.99999,-15 8,0 15,7 15,15 0,8 -7,15 -15,15 z"
       id="path4781"
       style="display:inline" />
  </g>
</svg>
