<?xml version="1.0" encoding="UTF-8" standalone="no"?>
<svg
   xmlns:dc="http://purl.org/dc/elements/1.1/"
   xmlns:cc="http://creativecommons.org/ns#"
   xmlns:rdf="http://www.w3.org/1999/02/22-rdf-syntax-ns#"
   xmlns:svg="http://www.w3.org/2000/svg"
   xmlns="http://www.w3.org/2000/svg"
   version="1.1"
   id="svg4651"
   viewBox="0 0 199.99999 199.99999"
   height="56.444443mm"
   width="56.444443mm">
  <defs
     id="defs4653" />
  <metadata
     id="metadata4656">
    <rdf:RDF>
      <cc:Work
         rdf:about="">
        <dc:format>image/svg+xml</dc:format>
        <dc:type
           rdf:resource="http://purl.org/dc/dcmitype/StillImage" />
        <dc:title></dc:title>
      </cc:Work>
    </rdf:RDF>
  </metadata>
  <g
     transform="translate(-445.71429,-355.21936)"
     id="layer1">
    <g
       transform="matrix(9.9999982,0,0,9.9999976,435.71423,325.21867)"
       id="g4380"
       style="display:inline">
      <path
         d="m 16,11 -3,0 0,-7 c -1.7,0 -3,1.3 -3,3 l 0,4 -3,0 4.5,5 4.5,-5 z"
         id="path4382" />
      <path
         d="m 17,13 0,5 -10,0 C 6.4,18 6,17.6 6,17 l 0,-4 -2,0 0,4 c 0,1.9 1.3,3 3,3 l 12,0 0,-7 -2,0 z"
         id="path4384" />
    </g>
  </g>
</svg>
