<?xml version="1.0" encoding="UTF-8" standalone="no"?>
<svg
   xmlns:dc="http://purl.org/dc/elements/1.1/"
   xmlns:cc="http://creativecommons.org/ns#"
   xmlns:rdf="http://www.w3.org/1999/02/22-rdf-syntax-ns#"
   xmlns:svg="http://www.w3.org/2000/svg"
   xmlns="http://www.w3.org/2000/svg"
   version="1.1"
   id="svg4651"
   viewBox="0 0 199.99999 199.99999"
   height="56.444443mm"
   width="56.444443mm">
  <defs
     id="defs4653" />
  <metadata
     id="metadata4656">
    <rdf:RDF>
      <cc:Work
         rdf:about="">
        <dc:format>image/svg+xml</dc:format>
        <dc:type
           rdf:resource="http://purl.org/dc/dcmitype/StillImage" />
        <dc:title></dc:title>
      </cc:Work>
    </rdf:RDF>
  </metadata>
  <g
     transform="translate(-445.71429,-355.21936)"
     id="layer1">
    <path
       d="m 565.71423,400.21954 c 0,-5.99996 0,-10.99996 0,-14.99997 -14,-15 -51.99995,-12 -59.99995,0 0,-10 0,-10 0,-10 l -10.00001,0 0,149.99997 10.00001,0 c 0,0 0,-31.00001 0,-70 8,-8 33.99995,-9 49.99995,-5 0,6 0,11 0,15 12,15 43,12 50.00001,0 l 0,-69.99996 c -7.00001,6.99996 -27.00001,8.99996 -40,4.99996 z"
       id="path4460"
       style="display:inline" />
  </g>
</svg>
