<?xml version="1.0" encoding="UTF-8" standalone="no"?>
<svg
   xmlns:dc="http://purl.org/dc/elements/1.1/"
   xmlns:cc="http://creativecommons.org/ns#"
   xmlns:rdf="http://www.w3.org/1999/02/22-rdf-syntax-ns#"
   xmlns:svg="http://www.w3.org/2000/svg"
   xmlns="http://www.w3.org/2000/svg"
   version="1.1"
   id="svg4651"
   viewBox="0 0 199.99999 199.99999"
   height="56.444443mm"
   width="56.444443mm">
  <defs
     id="defs4653" />
  <metadata
     id="metadata4656">
    <rdf:RDF>
      <cc:Work
         rdf:about="">
        <dc:format>image/svg+xml</dc:format>
        <dc:type
           rdf:resource="http://purl.org/dc/dcmitype/StillImage" />
        <dc:title></dc:title>
      </cc:Work>
    </rdf:RDF>
  </metadata>
  <g
     transform="translate(-445.71429,-355.21936)"
     id="layer1">
    <g
       transform="matrix(9.9999982,0,0,9.9999976,425.71425,323.21989)"
       id="g4507"
       style="display:inline">
      <g
         style="display:none"
         transform="matrix(1,0,0,-1,0,1638)"
         display="none"
         id="g4493">
        <path
           style="display:inline"
           display="inline"
           d="m 14.9,1631.5 c 0.8,0 1.6,-0.3 2.3,-0.9 0.3,-0.3 0.6,-0.7 0.8,-1.1 0.2,-0.5 0.3,-0.9 0.3,-1.5 0,-1.4 -0.6,-2.6 -1.8,-3.6 -0.5,-0.4 -1.3,-1.2 -2.6,-2.2 -1.3,-1 -1.9,-1.5 -1.9,-1.5 l -4.6,3.8 c -0.5,0.5 -1,1 -1.3,1.6 -0.3,0.6 -0.5,1.2 -0.5,1.8 0,0.5 0.1,1.1 0.2,1.5 0.2,0.7 0.7,1.3 1.3,1.7 0.6,0.4 1.2,0.6 1.9,0.6 1.2,0 2.2,-0.5 2.9,-1.5 0.9,0.8 1.9,1.3 3,1.3 z"
           id="path4495" />
      </g>
      <path
         style="display:none"
         display="none"
         d="M 15.1,7.4 C 14,7.4 12,8.4 12,9.7 12,8.5 10.1,7.4 8.9,7.4 7.5,7.4 6.3,8.2 5.7,9.5 4.5,12 6.8,13.9 8.5,15.4 9.4,16 12,18.2 12,18.2 c 0,0 3.9,-3.2 4.6,-3.9 1.2,-1.1 2.3,-2.5 1.9,-4.2 -0.4,-1.6 -2,-2.7 -3.4,-2.7 z"
         id="path4497" />
      <path
         d="M 15,7 C 13,7 12,9 12,9 12,9 11,7 9,7 6.5,7 5,9 5,11 c 0,4 5,5 7,8 2,-3 7,-4 7,-8 0,-2 -1.5,-4 -4,-4 z"
         id="path4499" />
    </g>
  </g>
</svg>
