<?xml version="1.0" encoding="UTF-8" standalone="no"?>
<svg
   xmlns:dc="http://purl.org/dc/elements/1.1/"
   xmlns:cc="http://creativecommons.org/ns#"
   xmlns:rdf="http://www.w3.org/1999/02/22-rdf-syntax-ns#"
   xmlns:svg="http://www.w3.org/2000/svg"
   xmlns="http://www.w3.org/2000/svg"
   version="1.1"
   id="svg4651"
   viewBox="0 0 199.99999 199.99999"
   height="56.444443mm"
   width="56.444443mm">
  <defs
     id="defs4653" />
  <metadata
     id="metadata4656">
    <rdf:RDF>
      <cc:Work
         rdf:about="">
        <dc:format>image/svg+xml</dc:format>
        <dc:type
           rdf:resource="http://purl.org/dc/dcmitype/StillImage" />
        <dc:title></dc:title>
      </cc:Work>
    </rdf:RDF>
  </metadata>
  <g
     transform="translate(-445.71429,-355.21936)"
     id="layer1">
    <g
       transform="matrix(9.9999982,0,0,-9.9999976,415.71418,16725.213)"
       id="g4598"
       style="display:inline">
      <path
         d="m 15,1630 c 0,0 0,3 -2.5,3 -2.5,0 -2.5,-3 -2.5,-3 l 0,-1 5,0 0,1 z m 2,0 0,-1 2,0 0,-10 -10,0 c -1.7,0 -3,1.3 -3,3 l 0,7 2,0 0,1 c 0,0 0,5 4.5,5 4.5,0 4.5,-5 4.5,-5 z"
         id="path4600" />
    </g>
  </g>
</svg>
