<?xml version="1.0" encoding="UTF-8" standalone="no"?>
<svg
   xmlns:dc="http://purl.org/dc/elements/1.1/"
   xmlns:cc="http://creativecommons.org/ns#"
   xmlns:rdf="http://www.w3.org/1999/02/22-rdf-syntax-ns#"
   xmlns:svg="http://www.w3.org/2000/svg"
   xmlns="http://www.w3.org/2000/svg"
   version="1.1"
   id="svg4651"
   viewBox="0 0 199.99999 199.99999"
   height="56.444443mm"
   width="56.444443mm">
  <defs
     id="defs4653" />
  <metadata
     id="metadata4656">
    <rdf:RDF>
      <cc:Work
         rdf:about="">
        <dc:format>image/svg+xml</dc:format>
        <dc:type
           rdf:resource="http://purl.org/dc/dcmitype/StillImage" />
        <dc:title></dc:title>
      </cc:Work>
    </rdf:RDF>
  </metadata>
  <g
     transform="translate(-445.71429,-355.21936)"
     id="layer1">
    <path
       d="m 615.71427,435.21938 c 0,-39 -31,-69.99999 -69.99999,-69.99999 -39,0 -69.99999,30.99999 -69.99999,69.99999 0,14 3.99999,26 11,37 l 58.99999,72.99999 58.99999,-72.99999 0,0 c 7,-11 11,-23 11,-37 z m -69.99999,40 c -22,0 -40,-18 -40,-40 0,-22 18,-40 40,-40 22,0 39.99999,18 39.99999,40 0,22 -17.99999,40 -39.99999,40 z"
       id="path4659"
       style="display:inline" />
  </g>
</svg>
