<?xml version="1.0" encoding="UTF-8" standalone="no"?>
<svg
   xmlns:dc="http://purl.org/dc/elements/1.1/"
   xmlns:cc="http://creativecommons.org/ns#"
   xmlns:rdf="http://www.w3.org/1999/02/22-rdf-syntax-ns#"
   xmlns:svg="http://www.w3.org/2000/svg"
   xmlns="http://www.w3.org/2000/svg"
   version="1.1"
   id="svg4651"
   viewBox="0 0 199.99999 199.99999"
   height="56.444443mm"
   width="56.444443mm">
  <defs
     id="defs4653" />
  <metadata
     id="metadata4656">
    <rdf:RDF>
      <cc:Work
         rdf:about="">
        <dc:format>image/svg+xml</dc:format>
        <dc:type
           rdf:resource="http://purl.org/dc/dcmitype/StillImage" />
        <dc:title></dc:title>
      </cc:Work>
    </rdf:RDF>
  </metadata>
  <g
     transform="translate(-445.71429,-355.21936)"
     id="layer1">
    <path
       d="m 475.71428,385.21934 0,119.99999 c -6,0 -10,-4 -10,-10 l 0,-89.99999 -10,0 0,89.99999 c 0,11 9,20 20,20 l 19.99999,0 129.99999,0 0,-129.99999 -149.99998,0 z m 89.99999,109.99999 -70,0 0,-10 70,0 0,10 z m 0,-19.99999 -70,0 0,-10 70,0 0,10 z m 0,-20 -70,0 0,-9.99995 70,0 0,9.99995 z m 39.99999,39.99999 -30,0 0,-49.99994 30,0 0,49.99994 z m 0,-69.99999 -109.99999,0 0,-20 109.99999,0 0,20 z"
       id="path4324"
       style="display:inline" />
  </g>
</svg>
