<?xml version="1.0" encoding="UTF-8" standalone="no"?>
<svg
   xmlns:dc="http://purl.org/dc/elements/1.1/"
   xmlns:cc="http://creativecommons.org/ns#"
   xmlns:rdf="http://www.w3.org/1999/02/22-rdf-syntax-ns#"
   xmlns:svg="http://www.w3.org/2000/svg"
   xmlns="http://www.w3.org/2000/svg"
   version="1.1"
   id="svg4651"
   viewBox="0 0 199.99999 199.99999"
   height="56.444443mm"
   width="56.444443mm">
  <defs
     id="defs4653" />
  <metadata
     id="metadata4656">
    <rdf:RDF>
      <cc:Work
         rdf:about="">
        <dc:format>image/svg+xml</dc:format>
        <dc:type
           rdf:resource="http://purl.org/dc/dcmitype/StillImage" />
        <dc:title></dc:title>
      </cc:Work>
    </rdf:RDF>
  </metadata>
  <g
     transform="translate(-445.71429,-355.21936)"
     id="layer1">
    <g
       transform="matrix(9.9999982,0,0,9.9999976,425.71428,335.21942)"
       id="g4589"
       style="display:inline">
      <path
         d="M 21,7 8,7 8,5 21,5 21,7 Z"
         id="path4571" />
      <path
         d="m 21,13 -13,0 0,-2 13,0 0,2 z"
         id="path4573" />
      <path
         d="m 21,19 -13,0 0,-2 13,0 0,2 z"
         id="path4575" />
      <polygon
         points="5,8 5,5 4,5 4,4 6,4 6,8 "
         id="polygon4577" />
      <polygon
         points="3,11 5,11 5,10 3,10 3,9 6,9 6,12 4,12 4,13 6,13 6,14 3,14 "
         id="polygon4579" />
      <polygon
         points="3,16 3,15 6,15 6,20 3,20 3,19 5,19 5,18 4,18 4,17 5,17 5,16 "
         id="polygon4581" />
    </g>
  </g>
</svg>
