<?xml version="1.0" encoding="UTF-8" standalone="no"?>
<svg
   xmlns:dc="http://purl.org/dc/elements/1.1/"
   xmlns:cc="http://creativecommons.org/ns#"
   xmlns:rdf="http://www.w3.org/1999/02/22-rdf-syntax-ns#"
   xmlns:svg="http://www.w3.org/2000/svg"
   xmlns="http://www.w3.org/2000/svg"
   version="1.1"
   id="svg4651"
   viewBox="0 0 199.99999 199.99999"
   height="56.444443mm"
   width="56.444443mm">
  <defs
     id="defs4653" />
  <metadata
     id="metadata4656">
    <rdf:RDF>
      <cc:Work
         rdf:about="">
        <dc:format>image/svg+xml</dc:format>
        <dc:type
           rdf:resource="http://purl.org/dc/dcmitype/StillImage" />
        <dc:title></dc:title>
      </cc:Work>
    </rdf:RDF>
  </metadata>
  <g
     transform="translate(-445.71429,-355.21936)"
     id="layer1">
    <g
       transform="matrix(9.9999982,0,0,9.9999976,425.71429,335.2193)"
       id="g4225"
       style="display:inline">
      <path
         d="M 19.1,18.5 C 19.7,17.8 20,17 20,16 c 0,-2.2 -1.8,-4 -4,-4 -2.2,0 -4,1.8 -4,4 0,2.2 1.8,4 4,4 0.7,0 1.3,-0.1 1.8,-0.4 l 2.7,2.7 1.1,-1.1 -2.5,-2.7 z M 16,18.2 c -1.2,0 -2.2,-1 -2.2,-2.3 0,-1.2 1,-2.2 2.2,-2.2 1.2,0 2.3,1 2.3,2.2 -0.1,1.3 -1.1,2.3 -2.3,2.3 z"
         id="path4227" />
      <path
         d="m 11.8,13 c 0.3,-0.4 0.6,-0.7 1,-1 l -5.8,0 0,-1 9,0 c 0,0 1.2,0 2,0.6 L 18,3 5,3 5,16 c 0,1.7 1.3,3 3,3 l 3.8,0 c -0.6,-0.8 -1,-1.9 -1,-3 0,0 0,0 0,0 l -3.8,0 0,-1 3.9,0 c 0.1,-0.3 0.2,-0.7 0.3,-1 l -4.2,0 0,-1 4.8,0 z m 0.2,-8 4,0 0,5 -4,0 0,-5 z M 7,5 11,5 11,6 7,6 7,5 Z m 0,2 4,0 0,1 -4,0 0,-1 z m 0,2 4,0 0,1 -4,0 0,-1 z"
         id="path4229" />
    </g>
  </g>
</svg>
