<?xml version="1.0" encoding="UTF-8" standalone="no"?>
<svg
   xmlns:dc="http://purl.org/dc/elements/1.1/"
   xmlns:cc="http://creativecommons.org/ns#"
   xmlns:rdf="http://www.w3.org/1999/02/22-rdf-syntax-ns#"
   xmlns:svg="http://www.w3.org/2000/svg"
   xmlns="http://www.w3.org/2000/svg"
   version="1.1"
   id="svg4651"
   viewBox="0 0 199.99999 199.99999"
   height="56.444443mm"
   width="56.444443mm">
  <defs
     id="defs4653" />
  <metadata
     id="metadata4656">
    <rdf:RDF>
      <cc:Work
         rdf:about="">
        <dc:format>image/svg+xml</dc:format>
        <dc:type
           rdf:resource="http://purl.org/dc/dcmitype/StillImage" />
        <dc:title></dc:title>
      </cc:Work>
    </rdf:RDF>
  </metadata>
  <g
     transform="translate(-445.71429,-355.21936)"
     id="layer1">
    <g
       transform="matrix(9.9999982,0,0,-9.9999976,425.71428,16715.214)"
       id="g4291"
       style="display:inline">
      <path
         d="m 7,1626 9,0 0,1 -9,0 0,-1 z m 0,-2 9,0 0,1 -9,0 0,-1 z m 0,-2 9,0 0,1 -9,0 0,-1 z m 4,9 -4,0 0,-1 4,0 0,1 z m 0,-2 -4,0 0,-1 4,0 0,1 z m 0,4 -4,0 0,-1 4,0 0,1 z m 5,2 2,0 0,-16 -10,0 c -1.7,0 -3,1.3 -3,3 l 0,13 8,0 0,0 0,-7 1.5,2 1.5,-2 0,7 z"
         id="path4293" />
    </g>
  </g>
</svg>
