<?xml version="1.0" encoding="UTF-8" standalone="no"?>
<svg
   xmlns:dc="http://purl.org/dc/elements/1.1/"
   xmlns:cc="http://creativecommons.org/ns#"
   xmlns:rdf="http://www.w3.org/1999/02/22-rdf-syntax-ns#"
   xmlns:svg="http://www.w3.org/2000/svg"
   xmlns="http://www.w3.org/2000/svg"
   version="1.1"
   id="svg4651"
   viewBox="0 0 199.99999 199.99999"
   height="56.444443mm"
   width="56.444443mm">
  <defs
     id="defs4653" />
  <metadata
     id="metadata4656">
    <rdf:RDF>
      <cc:Work
         rdf:about="">
        <dc:format>image/svg+xml</dc:format>
        <dc:type
           rdf:resource="http://purl.org/dc/dcmitype/StillImage" />
        <dc:title></dc:title>
      </cc:Work>
    </rdf:RDF>
  </metadata>
  <g
     transform="translate(-445.71429,-355.21936)"
     id="layer1">
    <path
       d="m 545.71429,435.21955 39.99999,0 0,-50.00001 -39.99999,0 0,50.00001 z m -50,20 89.99999,0 0,-10 -89.99999,0 0,10 z m 0,20.00001 89.99999,0 0,-10.00001 -89.99999,0 0,10.00001 z m 0,19.99999 89.99999,0 0,-10 -89.99999,0 0,10 z m 40,-90 -40,0 0,10 40,0 0,-10 z m 0,20 -40,0 0,10 40,0 0,-10 z m 0,-40.00001 -40,0 0,10.00001 40,0 0,-10.00001 z m -59.99999,-19.99995 129.99998,0 0,159.99997 -99.99999,0 c -17,0 -29.99999,-13.00001 -29.99999,-30.00001 l 0,-129.99996 z"
       id="path4215"
       style="display:inline" />
  </g>
</svg>
