<?xml version="1.0" encoding="UTF-8" standalone="no"?>
<svg
   xmlns:dc="http://purl.org/dc/elements/1.1/"
   xmlns:cc="http://creativecommons.org/ns#"
   xmlns:rdf="http://www.w3.org/1999/02/22-rdf-syntax-ns#"
   xmlns:svg="http://www.w3.org/2000/svg"
   xmlns="http://www.w3.org/2000/svg"
   version="1.1"
   id="svg4651"
   viewBox="0 0 199.99999 199.99999"
   height="56.444443mm"
   width="56.444443mm">
  <defs
     id="defs4653" />
  <metadata
     id="metadata4656">
    <rdf:RDF>
      <cc:Work
         rdf:about="">
        <dc:format>image/svg+xml</dc:format>
        <dc:type
           rdf:resource="http://purl.org/dc/dcmitype/StillImage" />
        <dc:title></dc:title>
      </cc:Work>
    </rdf:RDF>
  </metadata>
  <g
     transform="translate(-445.71429,-355.21936)"
     id="layer1">
    <path
       d="m 479.76318,518.38948 c -13.99841,-13.9983 -13.99841,-37.1261 0,-51.12439 l 59.94936,-59.9494 c 4.2604,-4.2604 10.0423,-6.6949 16.1285,-6.6949 l 0,0 c 6.0863,0 11.8682,2.4345 16.1286,6.6949 8.825,8.825 8.825,23.1277 0,31.95275 l -46.25535,45.95104 c 0,0 -2.1302,-2.1302 -4.869,-4.86899 -4.5647,-4.5647 -4.5647,-11.5638 0,-16.1285 l 37.73456,-37.7347 c 1.8259,-1.8259 1.8259,-4.5647 0,-6.3905 -1.2172,-1.2173 -2.4345,-1.2173 -3.3474,-1.2173 l 0,0 c -0.60901,0 -2.13021,0.304 -3.34741,1.2173 l -59.03646,59.6451 c -3.3475,3.34739 -5.47759,7.60779 -5.78199,12.17249 -0.304,5.1733 1.52159,10.3466 5.17329,13.9983 6.9992,6.9992 18.56311,6.9992 25.56221,0 l 85.81595,-85.81589 c 3.34741,-3.3475 5.17331,-7.9122 5.17331,-12.7811 0,-4.869 -1.8259,-9.4337 -5.17331,-12.78109 -5.4776,-5.4777 -13.0854,-6.6949 -19.7803,-3.9561 -4.2603,1.8259 -9.1293,0.609 -12.1724,-2.4345 -3.34749,-3.0431 -6.39059,-6.3905 -6.39059,-6.3905 13.99829,-13.9984 37.12609,-13.9984 51.1244,0 6.6949,6.6948 10.6509,15.82419 10.6509,25.56219 0,9.7379 -3.6517,18.8673 -10.6509,25.5622 l -85.51156,85.51159 c -6.9992,7.3035 -16.4329,10.6509 -25.5622,10.6509 -9.43371,0 -18.5631,-3.3474 -25.5622,-10.6509 z"
       id="path4745"
       style="display:inline" />
  </g>
</svg>
