<?xml version="1.0" encoding="UTF-8" standalone="no"?>
<svg
   xmlns:dc="http://purl.org/dc/elements/1.1/"
   xmlns:cc="http://creativecommons.org/ns#"
   xmlns:rdf="http://www.w3.org/1999/02/22-rdf-syntax-ns#"
   xmlns:svg="http://www.w3.org/2000/svg"
   xmlns="http://www.w3.org/2000/svg"
   version="1.1"
   id="svg4651"
   viewBox="0 0 199.99999 199.99999"
   height="56.444443mm"
   width="56.444443mm">
  <defs
     id="defs4653" />
  <metadata
     id="metadata4656">
    <rdf:RDF>
      <cc:Work
         rdf:about="">
        <dc:format>image/svg+xml</dc:format>
        <dc:type
           rdf:resource="http://purl.org/dc/dcmitype/StillImage" />
        <dc:title></dc:title>
      </cc:Work>
    </rdf:RDF>
  </metadata>
  <g
     transform="translate(-445.71429,-355.21936)"
     id="layer1">
    <path
       d="m 605.71425,415.21924 c -3,0 -7,0 -10,0 l 0,-39.99997 -99.99999,0 0,39.99997 c -22.99999,0 -39.99999,0 -39.99999,0 l 0,60.00001 c 0,16.99999 13,30 30,30 l 9.99999,0 0,30 99.99999,0 0,-30 40,0 0,-60.00001 c 0,-17 -13,-30 -30,-30 z m -99.99999,-29.99997 79.99999,0 0,29.99997 c -24.99999,0 -54.99999,0 -79.99999,0 l 0,-29.99997 z m 79.99999,139.99998 -79.99999,0 0,-60 60,0 19.99999,0 0,60 z"
       id="path4755"
       style="display:inline" />
  </g>
</svg>
