<?xml version="1.0" encoding="UTF-8" standalone="no"?>
<svg
   xmlns:dc="http://purl.org/dc/elements/1.1/"
   xmlns:cc="http://creativecommons.org/ns#"
   xmlns:rdf="http://www.w3.org/1999/02/22-rdf-syntax-ns#"
   xmlns:svg="http://www.w3.org/2000/svg"
   xmlns="http://www.w3.org/2000/svg"
   version="1.1"
   id="svg4349"
   viewBox="0 0 199.99998 199.99998"
   height="56.444443mm"
   width="56.444443mm">
  <defs
     id="defs4351" />
  <metadata
     id="metadata4354">
    <rdf:RDF>
      <cc:Work
         rdf:about="">
        <dc:format>image/svg+xml</dc:format>
        <dc:type
           rdf:resource="http://purl.org/dc/dcmitype/StillImage" />
        <dc:title></dc:title>
      </cc:Work>
    </rdf:RDF>
  </metadata>
  <g
     transform="translate(-474.45477,-350.86179)"
     id="layer1">
    <path
       d="m 612.9614,469.62314 0,0 c 16.16315,-24.9904 12.53469,-57.41029 -8.24654,-79.02359 -11.87492,-12.1575 -27.04853,-18.57389 -43.54144,-18.57389 -16.49301,0 -31.99646,6.75409 -43.87138,18.57389 -24.4097,24.9904 -24.07977,64.83989 -0.3301,89.49249 11.87491,12.1575 27.04851,18.574 43.87128,18.574 12.20485,0 23.74991,-3.3771 33.64572,-9.7936 l 29.68741,30.3937 c 6.5972,6.75409 16.82287,6.75409 23.42007,0 l 6.92704,-7.0919 -41.56231,-42.5511 z m -77.18724,-8.7803 c -13.19441,-13.5083 -13.85411,-35.45939 -1.31941,-49.98089 0.3301,-0.675 0.9896,-1.0131 1.31941,-1.3508 6.92706,-6.7541 15.50345,-10.8066 25.06932,-10.8066 9.56595,0 18.4722,3.7148 25.0694,10.8066 13.85411,14.1838 13.85411,37.14799 0,51.33169 -6.59721,6.7541 -15.50345,10.8066 -25.0694,10.8066 -9.56587,0 -18.14226,-4.0525 -25.06932,-10.8066 z"
       id="path4639"
       style="display:inline" />
  </g>
</svg>
