<?xml version="1.0" encoding="UTF-8" standalone="no"?>
<svg
   xmlns:dc="http://purl.org/dc/elements/1.1/"
   xmlns:cc="http://creativecommons.org/ns#"
   xmlns:rdf="http://www.w3.org/1999/02/22-rdf-syntax-ns#"
   xmlns:svg="http://www.w3.org/2000/svg"
   xmlns="http://www.w3.org/2000/svg"
   version="1.1"
   id="svg4651"
   viewBox="0 0 199.99999 199.99999"
   height="56.444443mm"
   width="56.444443mm">
  <defs
     id="defs4653" />
  <metadata
     id="metadata4656">
    <rdf:RDF>
      <cc:Work
         rdf:about="">
        <dc:format>image/svg+xml</dc:format>
        <dc:type
           rdf:resource="http://purl.org/dc/dcmitype/StillImage" />
        <dc:title></dc:title>
      </cc:Work>
    </rdf:RDF>
  </metadata>
  <g
     transform="translate(-445.71429,-355.21936)"
     id="layer1">
    <g
       transform="matrix(7.6497681,0,0,7.6497677,459.60359,362.8229)"
       id="g4928"
       style="display:inline">
      <path
         d="M 11.1,13.1 C 9.3,11 8.4,8.8 8.1,8 L 12.8,8 13.5,6 8,6 8,3 6,3 6,6 1,6 1,8 6,8 C 5.8,8.9 4.7,12.8 0.9,15.6 l 1.2,1.6 c 2.7,-2 4.3,-4.5 5.1,-6.4 0.7,1.3 1.7,3 3.2,4.5 l 0.7,-2.2 z"
         id="path4918" />
      <path
         d="m 12.5,20 1.3,-4 5.3,0 1.3,4 2.2,0 -4.6,-14 -3,0 -4.7,14 2.2,0 z m 4,-12 2,6 0,0 -4,0 0,0 2,-6 z"
         id="path4920" />
    </g>
  </g>
</svg>
