<?xml version="1.0" encoding="UTF-8" standalone="no"?>
<svg
   xmlns:dc="http://purl.org/dc/elements/1.1/"
   xmlns:cc="http://creativecommons.org/ns#"
   xmlns:rdf="http://www.w3.org/1999/02/22-rdf-syntax-ns#"
   xmlns:svg="http://www.w3.org/2000/svg"
   xmlns="http://www.w3.org/2000/svg"
   version="1.1"
   id="svg4651"
   viewBox="0 0 199.99999 199.99999"
   height="56.444443mm"
   width="56.444443mm">
  <defs
     id="defs4653" />
  <metadata
     id="metadata4656">
    <rdf:RDF>
      <cc:Work
         rdf:about="">
        <dc:format>image/svg+xml</dc:format>
        <dc:type
           rdf:resource="http://purl.org/dc/dcmitype/StillImage" />
        <dc:title></dc:title>
      </cc:Work>
    </rdf:RDF>
  </metadata>
  <g
     transform="translate(-445.71429,-355.21936)"
     id="layer1">
    <path
       d="m 613.21427,503.71935 c -10.8,-3.6 -36,-13.5 -36,-13.5 -8.09999,-2.7 -8.09999,-9.89999 -8.99999,-17.99999 l 0,-0.9 c 12.59999,-10.8 22.49999,-28.8 22.49999,-48.6 0,-42.3 -18,-58.49999 -45.00004,-58.49999 -18.9,0 -45,10.8 -45,58.49999 0,18.9 9.9,36.9 22.5,48.6 l 0,0.9 c 0,8.1 -0.9,15.29999 -9,17.99999 0,0 -26.1,9.9 -35.99994,13.5 -11.7,3.6 -22.5,9 -22.5,22.5 l 0,9 179.99998,0 0,-9 c 0,-10.8 -7.2,-18 -22.5,-22.5 z"
       id="path4407"
       style="display:inline" />
  </g>
</svg>
